<svg xmlns="http://www.w3.org/2000/svg" xmlns:xlink="http://www.w3.org/1999/xlink" width="1500" zoomAndPan="magnify" viewBox="0 0 1125 337.499995" height="450" preserveAspectRatio="xMidYMid meet" version="1.0"><defs><g/><clipPath id="7dd201a03a"><path d="M 0.832031 0 L 241 0 L 241 330 L 0.832031 330 Z M 0.832031 0 " clip-rule="nonzero"/></clipPath><clipPath id="079e1b09da"><path d="M 0.832031 98.617188 L 1124.167969 98.617188 L 1124.167969 248.871094 L 0.832031 248.871094 Z M 0.832031 98.617188 " clip-rule="nonzero"/></clipPath></defs><g clip-path="url(#7dd201a03a)"><g fill="#0c1d36" fill-opacity="1"><g transform="translate(-10.031332, 320.170782)"><g><path d="M 134.335938 9.691406 C 205.6875 9.691406 250.171875 -30.390625 250.171875 -87.648438 C 250.171875 -133.453125 223.304688 -160.761719 164.726562 -175.738281 L 121.121094 -188.070312 C 88.53125 -197.320312 74.875 -210.53125 74.875 -232.996094 C 74.875 -258.542969 94.695312 -277.921875 125.527344 -277.921875 C 157.238281 -277.921875 179.703125 -255.019531 181.902344 -219.339844 L 232.113281 -230.351562 C 227.710938 -285.410156 185.867188 -321.523438 126.40625 -321.523438 C 61.222656 -321.523438 21.582031 -283.207031 21.582031 -228.152344 C 21.582031 -183.226562 46.246094 -156.796875 101.742188 -141.824219 L 145.789062 -129.492188 C 181.464844 -118.921875 196.4375 -104.824219 196.4375 -82.363281 C 196.4375 -55.054688 173.535156 -34.355469 136.097656 -34.355469 C 93.816406 -34.355469 62.101562 -62.984375 60.339844 -106.585938 L 8.367188 -97.339844 C 12.332031 -32.152344 62.542969 9.691406 134.335938 9.691406 Z M 134.335938 9.691406 "/></g></g></g></g><g fill="#0c1d36" fill-opacity="1"><g transform="translate(247.619398, 320.170782)"><g><path d="M 163.84375 9.25 C 239.601562 9.25 294.21875 -40.082031 305.226562 -119.359375 L 253.253906 -128.609375 C 245.328125 -73.113281 210.53125 -38.757812 163.84375 -38.757812 C 105.265625 -38.757812 69.148438 -83.242188 68.710938 -155.917969 C 68.710938 -228.589844 101.742188 -273.957031 154.597656 -273.957031 C 193.355469 -273.957031 221.542969 -245.328125 229.472656 -196.878906 L 280.5625 -207.890625 C 269.113281 -278.800781 221.101562 -321.523438 154.597656 -321.523438 C 67.828125 -321.523438 13.652344 -257.660156 13.652344 -155.917969 C 13.652344 -54.175781 71.351562 9.25 163.84375 9.25 Z M 163.84375 9.25 "/></g></g></g><g fill="#0c1d36" fill-opacity="1"><g transform="translate(560.323677, 320.170782)"><g><path d="M 163.84375 9.25 C 239.601562 9.25 294.21875 -40.082031 305.226562 -119.359375 L 253.253906 -128.609375 C 245.328125 -73.113281 210.53125 -38.757812 163.84375 -38.757812 C 105.265625 -38.757812 69.148438 -83.242188 68.710938 -155.917969 C 68.710938 -228.589844 101.742188 -273.957031 154.597656 -273.957031 C 193.355469 -273.957031 221.542969 -245.328125 229.472656 -196.878906 L 280.5625 -207.890625 C 269.113281 -278.800781 221.101562 -321.523438 154.597656 -321.523438 C 67.828125 -321.523438 13.652344 -257.660156 13.652344 -155.917969 C 13.652344 -54.175781 71.351562 9.25 163.84375 9.25 Z M 163.84375 9.25 "/></g></g></g><g fill="#0c1d36" fill-opacity="1"><g transform="translate(873.027956, 320.170782)"><g><path d="M 134.335938 9.691406 C 205.6875 9.691406 250.171875 -30.390625 250.171875 -87.648438 C 250.171875 -133.453125 223.304688 -160.761719 164.726562 -175.738281 L 121.121094 -188.070312 C 88.53125 -197.320312 74.875 -210.53125 74.875 -232.996094 C 74.875 -258.542969 94.695312 -277.921875 125.527344 -277.921875 C 157.238281 -277.921875 179.703125 -255.019531 181.902344 -219.339844 L 232.113281 -230.351562 C 227.710938 -285.410156 185.867188 -321.523438 126.40625 -321.523438 C 61.222656 -321.523438 21.582031 -283.207031 21.582031 -228.152344 C 21.582031 -183.226562 46.246094 -156.796875 101.742188 -141.824219 L 145.789062 -129.492188 C 181.464844 -118.921875 196.4375 -104.824219 196.4375 -82.363281 C 196.4375 -55.054688 173.535156 -34.355469 136.097656 -34.355469 C 93.816406 -34.355469 62.101562 -62.984375 60.339844 -106.585938 L 8.367188 -97.339844 C 12.332031 -32.152344 62.542969 9.691406 134.335938 9.691406 Z M 134.335938 9.691406 "/></g></g></g><g clip-path="url(#079e1b09da)"><path fill="#ffffff" d="M -10.03125 98.617188 L 1128.941406 98.617188 L 1128.941406 248.339844 L -10.03125 248.339844 Z M -10.03125 98.617188 " fill-opacity="1" fill-rule="nonzero"/></g><g fill="#0c1d36" fill-opacity="1"><g transform="translate(12.997652, 156.568273)"><g><path d="M 18.28125 0.59375 C 15.425781 0.59375 12.882812 0.238281 10.65625 -0.46875 C 8.425781 -1.175781 6.566406 -2.101562 5.078125 -3.25 C 3.585938 -4.394531 2.453125 -5.65625 1.671875 -7.03125 L 6.15625 -12.5 L 6.859375 -12.5 C 8.097656 -10.65625 9.671875 -9.1875 11.578125 -8.09375 C 13.492188 -7.007812 15.726562 -6.46875 18.28125 -6.46875 C 20.46875 -6.46875 22.113281 -6.925781 23.21875 -7.84375 C 24.332031 -8.769531 24.890625 -10.039062 24.890625 -11.65625 C 24.890625 -12.632812 24.707031 -13.453125 24.34375 -14.109375 C 23.988281 -14.765625 23.394531 -15.328125 22.5625 -15.796875 C 21.738281 -16.273438 20.625 -16.679688 19.21875 -17.015625 L 13.90625 -18.234375 C 10.207031 -19.078125 7.445312 -20.484375 5.625 -22.453125 C 3.8125 -24.421875 2.90625 -26.972656 2.90625 -30.109375 C 2.90625 -32.441406 3.488281 -34.492188 4.65625 -36.265625 C 5.820312 -38.035156 7.519531 -39.410156 9.75 -40.390625 C 11.976562 -41.367188 14.644531 -41.859375 17.75 -41.859375 C 20.925781 -41.859375 23.648438 -41.4375 25.921875 -40.59375 C 28.191406 -39.757812 30.109375 -38.476562 31.671875 -36.75 L 27.625 -31.21875 L 26.921875 -31.21875 C 25.753906 -32.4375 24.414062 -33.347656 22.90625 -33.953125 C 21.40625 -34.566406 19.6875 -34.875 17.75 -34.875 C 15.507812 -34.875 13.804688 -34.476562 12.640625 -33.6875 C 11.472656 -32.90625 10.890625 -31.816406 10.890625 -30.421875 C 10.890625 -29.117188 11.296875 -28.082031 12.109375 -27.3125 C 12.929688 -26.539062 14.351562 -25.941406 16.375 -25.515625 L 21.78125 -24.390625 C 25.789062 -23.535156 28.695312 -22.097656 30.5 -20.078125 C 32.3125 -18.054688 33.21875 -15.414062 33.21875 -12.15625 C 33.21875 -9.582031 32.660156 -7.335938 31.546875 -5.421875 C 30.441406 -3.515625 28.769531 -2.035156 26.53125 -0.984375 C 24.289062 0.0664062 21.539062 0.59375 18.28125 0.59375 Z M 18.28125 0.59375 "/></g></g></g><g fill="#0c1d36" fill-opacity="1"><g transform="translate(48.436938, 156.568273)"><g><path d="M 32.796875 10.265625 C 29.160156 10.265625 26.144531 9.390625 23.75 7.640625 C 21.351562 5.890625 19.738281 3.457031 18.90625 0.34375 C 15.757812 -0.113281 13.015625 -1.179688 10.671875 -2.859375 C 8.335938 -4.546875 6.515625 -6.875 5.203125 -9.84375 C 3.898438 -12.820312 3.25 -16.414062 3.25 -20.625 C 3.25 -25.351562 4.066406 -29.300781 5.703125 -32.46875 C 7.335938 -35.632812 9.597656 -37.988281 12.484375 -39.53125 C 15.367188 -41.082031 18.707031 -41.859375 22.5 -41.859375 C 26.28125 -41.859375 29.609375 -41.085938 32.484375 -39.546875 C 35.359375 -38.015625 37.609375 -35.660156 39.234375 -32.484375 C 40.867188 -29.304688 41.6875 -25.351562 41.6875 -20.625 C 41.6875 -14.457031 40.363281 -9.722656 37.71875 -6.421875 C 35.070312 -3.117188 31.359375 -1.0625 26.578125 -0.25 L 26.4375 0.3125 C 27.019531 1.3125 27.890625 2.078125 29.046875 2.609375 C 30.210938 3.148438 31.566406 3.421875 33.109375 3.421875 C 34.347656 3.421875 35.46875 3.257812 36.46875 2.9375 L 37.03125 3.046875 L 38.1875 9.421875 C 37.582031 9.648438 36.769531 9.847656 35.75 10.015625 C 34.738281 10.179688 33.753906 10.265625 32.796875 10.265625 Z M 22.5 -6.484375 C 25.988281 -6.484375 28.65625 -7.609375 30.5 -9.859375 C 32.34375 -12.109375 33.265625 -15.695312 33.265625 -20.625 C 33.265625 -25.5625 32.34375 -29.15625 30.5 -31.40625 C 28.65625 -33.664062 25.988281 -34.796875 22.5 -34.796875 C 18.976562 -34.796875 16.289062 -33.664062 14.4375 -31.40625 C 12.582031 -29.15625 11.65625 -25.5625 11.65625 -20.625 C 11.65625 -15.695312 12.582031 -12.109375 14.4375 -9.859375 C 16.289062 -7.609375 18.976562 -6.484375 22.5 -6.484375 Z M 22.5 -6.484375 "/></g></g></g><g fill="#0c1d36" fill-opacity="1"><g transform="translate(93.385031, 156.568273)"><g><path d="M 21.875 0.59375 C 16.1875 0.59375 11.96875 -0.753906 9.21875 -3.453125 C 6.476562 -6.148438 5.109375 -10.15625 5.109375 -15.46875 L 5.109375 -41.265625 L 13.09375 -41.265625 L 13.09375 -15.515625 C 13.09375 -12.503906 13.816406 -10.242188 15.265625 -8.734375 C 16.710938 -7.234375 18.914062 -6.484375 21.875 -6.484375 C 27.71875 -6.484375 30.640625 -9.492188 30.640625 -15.515625 L 30.640625 -41.265625 L 38.640625 -41.265625 L 38.640625 -15.46875 C 38.640625 -10.15625 37.265625 -6.148438 34.515625 -3.453125 C 31.765625 -0.753906 27.550781 0.59375 21.875 0.59375 Z M 21.875 0.59375 "/></g></g></g><g fill="#0c1d36" fill-opacity="1"><g transform="translate(137.119817, 156.568273)"><g><path d="M 39.59375 0 L 31.015625 0 L 27.90625 -9.515625 L 12.109375 -9.515625 L 9 0 L 0.625 0 L 14.875 -41.265625 L 25.34375 -41.265625 Z M 19.609375 -32.65625 L 14.3125 -16.375 L 25.65625 -16.375 L 20.3125 -32.65625 Z M 19.609375 -32.65625 "/></g></g></g><g fill="#0c1d36" fill-opacity="1"><g transform="translate(177.327624, 156.568273)"><g><path d="M 20.203125 -41.265625 C 26.898438 -41.265625 32.015625 -39.53125 35.546875 -36.0625 C 39.078125 -32.601562 40.84375 -27.457031 40.84375 -20.625 C 40.84375 -13.8125 39.078125 -8.671875 35.546875 -5.203125 C 32.015625 -1.734375 26.898438 0 20.203125 0 L 5.359375 0 L 5.359375 -41.265625 Z M 19.734375 -6.859375 C 23.984375 -6.859375 27.160156 -7.941406 29.265625 -10.109375 C 31.367188 -12.285156 32.421875 -15.789062 32.421875 -20.625 C 32.421875 -25.457031 31.367188 -28.960938 29.265625 -31.140625 C 27.160156 -33.316406 23.984375 -34.40625 19.734375 -34.40625 L 13.515625 -34.40625 L 13.515625 -6.859375 Z M 19.734375 -6.859375 "/></g></g></g><g fill="#0c1d36" fill-opacity="1"><g transform="translate(221.429236, 156.568273)"><g/></g></g><g fill="#0c1d36" fill-opacity="1"><g transform="translate(235.057577, 156.568273)"><g><path d="M 22.546875 0.59375 C 18.742188 0.59375 15.394531 -0.195312 12.5 -1.78125 C 9.601562 -3.363281 7.335938 -5.738281 5.703125 -8.90625 C 4.066406 -12.070312 3.25 -15.976562 3.25 -20.625 C 3.25 -25.269531 4.066406 -29.175781 5.703125 -32.34375 C 7.335938 -35.519531 9.601562 -37.898438 12.5 -39.484375 C 15.394531 -41.066406 18.742188 -41.859375 22.546875 -41.859375 C 26.515625 -41.859375 29.882812 -41.082031 32.65625 -39.53125 C 35.4375 -37.976562 37.421875 -35.609375 38.609375 -32.421875 L 32.65625 -28.78125 L 31.953125 -28.8125 C 31.066406 -30.957031 29.863281 -32.492188 28.34375 -33.421875 C 26.832031 -34.359375 24.898438 -34.828125 22.546875 -34.828125 C 19.117188 -34.828125 16.445312 -33.691406 14.53125 -31.421875 C 12.613281 -29.160156 11.65625 -25.5625 11.65625 -20.625 C 11.65625 -15.71875 12.613281 -12.128906 14.53125 -9.859375 C 16.445312 -7.597656 19.117188 -6.46875 22.546875 -6.46875 C 27.910156 -6.46875 31.191406 -9.070312 32.390625 -14.28125 L 33.109375 -14.28125 L 39.109375 -11.140625 C 37.984375 -7.234375 36.054688 -4.300781 33.328125 -2.34375 C 30.597656 -0.382812 27.003906 0.59375 22.546875 0.59375 Z M 22.546875 0.59375 "/></g></g></g><g fill="#0c1d36" fill-opacity="1"><g transform="translate(275.519308, 156.568273)"><g><path d="M 22.5 0.59375 C 18.707031 0.59375 15.367188 -0.175781 12.484375 -1.71875 C 9.597656 -3.257812 7.335938 -5.613281 5.703125 -8.78125 C 4.066406 -11.957031 3.25 -15.90625 3.25 -20.625 C 3.25 -25.351562 4.066406 -29.300781 5.703125 -32.46875 C 7.335938 -35.632812 9.597656 -37.988281 12.484375 -39.53125 C 15.367188 -41.082031 18.707031 -41.859375 22.5 -41.859375 C 26.28125 -41.859375 29.609375 -41.085938 32.484375 -39.546875 C 35.359375 -38.015625 37.609375 -35.660156 39.234375 -32.484375 C 40.867188 -29.304688 41.6875 -25.351562 41.6875 -20.625 C 41.6875 -15.90625 40.867188 -11.953125 39.234375 -8.765625 C 37.609375 -5.585938 35.359375 -3.234375 32.484375 -1.703125 C 29.609375 -0.171875 26.28125 0.59375 22.5 0.59375 Z M 22.5 -6.484375 C 25.988281 -6.484375 28.65625 -7.609375 30.5 -9.859375 C 32.34375 -12.109375 33.265625 -15.695312 33.265625 -20.625 C 33.265625 -25.5625 32.34375 -29.15625 30.5 -31.40625 C 28.65625 -33.664062 25.988281 -34.796875 22.5 -34.796875 C 18.976562 -34.796875 16.289062 -33.664062 14.4375 -31.40625 C 12.582031 -29.15625 11.65625 -25.5625 11.65625 -20.625 C 11.65625 -15.695312 12.582031 -12.109375 14.4375 -9.859375 C 16.289062 -7.609375 18.976562 -6.484375 22.5 -6.484375 Z M 22.5 -6.484375 "/></g></g></g><g fill="#0c1d36" fill-opacity="1"><g transform="translate(320.467402, 156.568273)"><g><path d="M 13.265625 0 L 5.359375 0 L 5.359375 -41.265625 L 14.703125 -41.265625 L 31.265625 -14.671875 L 32 -14.78125 L 32 -41.265625 L 39.84375 -41.265625 L 39.84375 0 L 31.5 0 L 13.96875 -28.390625 L 13.265625 -28.28125 Z M 13.265625 0 "/></g></g></g><g fill="#0c1d36" fill-opacity="1"><g transform="translate(365.697654, 156.568273)"><g><path d="M 33.078125 -41.265625 L 33.078125 -34.40625 L 21.171875 -34.40625 L 21.171875 0 L 13.03125 0 L 13.03125 -34.40625 L 1.125 -34.40625 L 1.125 -41.265625 Z M 33.078125 -41.265625 "/></g></g></g><g fill="#0c1d36" fill-opacity="1"><g transform="translate(399.895436, 156.568273)"><g><path d="M 39.59375 0 L 31.015625 0 L 27.90625 -9.515625 L 12.109375 -9.515625 L 9 0 L 0.625 0 L 14.875 -41.265625 L 25.34375 -41.265625 Z M 19.609375 -32.65625 L 14.3125 -16.375 L 25.65625 -16.375 L 20.3125 -32.65625 Z M 19.609375 -32.65625 "/></g></g></g><g fill="#0c1d36" fill-opacity="1"><g transform="translate(440.103242, 156.568273)"><g><path d="M 22.546875 0.59375 C 18.742188 0.59375 15.394531 -0.195312 12.5 -1.78125 C 9.601562 -3.363281 7.335938 -5.738281 5.703125 -8.90625 C 4.066406 -12.070312 3.25 -15.976562 3.25 -20.625 C 3.25 -25.269531 4.066406 -29.175781 5.703125 -32.34375 C 7.335938 -35.519531 9.601562 -37.898438 12.5 -39.484375 C 15.394531 -41.066406 18.742188 -41.859375 22.546875 -41.859375 C 26.515625 -41.859375 29.882812 -41.082031 32.65625 -39.53125 C 35.4375 -37.976562 37.421875 -35.609375 38.609375 -32.421875 L 32.65625 -28.78125 L 31.953125 -28.8125 C 31.066406 -30.957031 29.863281 -32.492188 28.34375 -33.421875 C 26.832031 -34.359375 24.898438 -34.828125 22.546875 -34.828125 C 19.117188 -34.828125 16.445312 -33.691406 14.53125 -31.421875 C 12.613281 -29.160156 11.65625 -25.5625 11.65625 -20.625 C 11.65625 -15.71875 12.613281 -12.128906 14.53125 -9.859375 C 16.445312 -7.597656 19.117188 -6.46875 22.546875 -6.46875 C 27.910156 -6.46875 31.191406 -9.070312 32.390625 -14.28125 L 33.109375 -14.28125 L 39.109375 -11.140625 C 37.984375 -7.234375 36.054688 -4.300781 33.328125 -2.34375 C 30.597656 -0.382812 27.003906 0.59375 22.546875 0.59375 Z M 22.546875 0.59375 "/></g></g></g><g fill="#0c1d36" fill-opacity="1"><g transform="translate(480.564973, 156.568273)"><g><path d="M 33.078125 -41.265625 L 33.078125 -34.40625 L 21.171875 -34.40625 L 21.171875 0 L 13.03125 0 L 13.03125 -34.40625 L 1.125 -34.40625 L 1.125 -41.265625 Z M 33.078125 -41.265625 "/></g></g></g><g fill="#0c1d36" fill-opacity="1"><g transform="translate(514.762755, 156.568273)"><g/></g></g><g fill="#0c1d36" fill-opacity="1"><g transform="translate(528.391096, 156.568273)"><g><path d="M 22.546875 0.59375 C 18.742188 0.59375 15.394531 -0.195312 12.5 -1.78125 C 9.601562 -3.363281 7.335938 -5.738281 5.703125 -8.90625 C 4.066406 -12.070312 3.25 -15.976562 3.25 -20.625 C 3.25 -25.269531 4.066406 -29.175781 5.703125 -32.34375 C 7.335938 -35.519531 9.601562 -37.898438 12.5 -39.484375 C 15.394531 -41.066406 18.742188 -41.859375 22.546875 -41.859375 C 26.515625 -41.859375 29.882812 -41.082031 32.65625 -39.53125 C 35.4375 -37.976562 37.421875 -35.609375 38.609375 -32.421875 L 32.65625 -28.78125 L 31.953125 -28.8125 C 31.066406 -30.957031 29.863281 -32.492188 28.34375 -33.421875 C 26.832031 -34.359375 24.898438 -34.828125 22.546875 -34.828125 C 19.117188 -34.828125 16.445312 -33.691406 14.53125 -31.421875 C 12.613281 -29.160156 11.65625 -25.5625 11.65625 -20.625 C 11.65625 -15.71875 12.613281 -12.128906 14.53125 -9.859375 C 16.445312 -7.597656 19.117188 -6.46875 22.546875 -6.46875 C 27.910156 -6.46875 31.191406 -9.070312 32.390625 -14.28125 L 33.109375 -14.28125 L 39.109375 -11.140625 C 37.984375 -7.234375 36.054688 -4.300781 33.328125 -2.34375 C 30.597656 -0.382812 27.003906 0.59375 22.546875 0.59375 Z M 22.546875 0.59375 "/></g></g></g><g fill="#0c1d36" fill-opacity="1"><g transform="translate(568.852828, 156.568273)"><g><path d="M 13.515625 -18.125 L 13.515625 -6.828125 L 33.21875 -6.828125 L 33.21875 0 L 5.359375 0 L 5.359375 -41.265625 L 32.765625 -41.265625 L 32.765625 -34.4375 L 13.515625 -34.4375 L 13.515625 -24.78125 L 30.34375 -24.78125 L 30.34375 -18.125 Z M 13.515625 -18.125 "/></g></g></g><g fill="#0c1d36" fill-opacity="1"><g transform="translate(604.320312, 156.568273)"><g><path d="M 13.265625 0 L 5.359375 0 L 5.359375 -41.265625 L 14.703125 -41.265625 L 31.265625 -14.671875 L 32 -14.78125 L 32 -41.265625 L 39.84375 -41.265625 L 39.84375 0 L 31.5 0 L 13.96875 -28.390625 L 13.265625 -28.28125 Z M 13.265625 0 "/></g></g></g><g fill="#0c1d36" fill-opacity="1"><g transform="translate(649.550564, 156.568273)"><g><path d="M 33.078125 -41.265625 L 33.078125 -34.40625 L 21.171875 -34.40625 L 21.171875 0 L 13.03125 0 L 13.03125 -34.40625 L 1.125 -34.40625 L 1.125 -41.265625 Z M 33.078125 -41.265625 "/></g></g></g><g fill="#0c1d36" fill-opacity="1"><g transform="translate(683.748346, 156.568273)"><g><path d="M 13.515625 -18.125 L 13.515625 -6.828125 L 33.21875 -6.828125 L 33.21875 0 L 5.359375 0 L 5.359375 -41.265625 L 32.765625 -41.265625 L 32.765625 -34.4375 L 13.515625 -34.4375 L 13.515625 -24.78125 L 30.34375 -24.78125 L 30.34375 -18.125 Z M 13.515625 -18.125 "/></g></g></g><g fill="#0c1d36" fill-opacity="1"><g transform="translate(719.21583, 156.568273)"><g><path d="M 5.359375 0 L 5.359375 -41.265625 L 21.921875 -41.265625 C 26.191406 -41.265625 29.414062 -40.28125 31.59375 -38.3125 C 33.769531 -36.34375 34.859375 -33.628906 34.859375 -30.171875 C 34.859375 -27.671875 34.222656 -25.617188 32.953125 -24.015625 C 31.679688 -22.421875 29.785156 -21.195312 27.265625 -20.34375 L 27.265625 -19.75 C 28.554688 -19.1875 29.601562 -18.347656 30.40625 -17.234375 C 31.207031 -16.128906 31.96875 -14.484375 32.6875 -12.296875 L 36.796875 0 L 28.421875 0 L 24.390625 -12.328125 C 23.972656 -13.566406 23.503906 -14.53125 22.984375 -15.21875 C 22.460938 -15.90625 21.800781 -16.40625 21 -16.71875 C 20.207031 -17.03125 19.171875 -17.1875 17.890625 -17.1875 L 13.515625 -17.1875 L 13.515625 0 Z M 20.9375 -23.65625 C 24.882812 -23.65625 26.859375 -25.5 26.859375 -29.1875 C 26.859375 -32.925781 24.882812 -34.796875 20.9375 -34.796875 L 13.515625 -34.796875 L 13.515625 -23.65625 Z M 20.9375 -23.65625 "/></g></g></g><g fill="#0c1d36" fill-opacity="1"><g transform="translate(757.787107, 156.568273)"><g/></g></g><g fill="#0c1d36" fill-opacity="1"><g transform="translate(771.415449, 156.568273)"><g><path d="M 18.28125 0.59375 C 15.425781 0.59375 12.882812 0.238281 10.65625 -0.46875 C 8.425781 -1.175781 6.566406 -2.101562 5.078125 -3.25 C 3.585938 -4.394531 2.453125 -5.65625 1.671875 -7.03125 L 6.15625 -12.5 L 6.859375 -12.5 C 8.097656 -10.65625 9.671875 -9.1875 11.578125 -8.09375 C 13.492188 -7.007812 15.726562 -6.46875 18.28125 -6.46875 C 20.46875 -6.46875 22.113281 -6.925781 23.21875 -7.84375 C 24.332031 -8.769531 24.890625 -10.039062 24.890625 -11.65625 C 24.890625 -12.632812 24.707031 -13.453125 24.34375 -14.109375 C 23.988281 -14.765625 23.394531 -15.328125 22.5625 -15.796875 C 21.738281 -16.273438 20.625 -16.679688 19.21875 -17.015625 L 13.90625 -18.234375 C 10.207031 -19.078125 7.445312 -20.484375 5.625 -22.453125 C 3.8125 -24.421875 2.90625 -26.972656 2.90625 -30.109375 C 2.90625 -32.441406 3.488281 -34.492188 4.65625 -36.265625 C 5.820312 -38.035156 7.519531 -39.410156 9.75 -40.390625 C 11.976562 -41.367188 14.644531 -41.859375 17.75 -41.859375 C 20.925781 -41.859375 23.648438 -41.4375 25.921875 -40.59375 C 28.191406 -39.757812 30.109375 -38.476562 31.671875 -36.75 L 27.625 -31.21875 L 26.921875 -31.21875 C 25.753906 -32.4375 24.414062 -33.347656 22.90625 -33.953125 C 21.40625 -34.566406 19.6875 -34.875 17.75 -34.875 C 15.507812 -34.875 13.804688 -34.476562 12.640625 -33.6875 C 11.472656 -32.90625 10.890625 -31.816406 10.890625 -30.421875 C 10.890625 -29.117188 11.296875 -28.082031 12.109375 -27.3125 C 12.929688 -26.539062 14.351562 -25.941406 16.375 -25.515625 L 21.78125 -24.390625 C 25.789062 -23.535156 28.695312 -22.097656 30.5 -20.078125 C 32.3125 -18.054688 33.21875 -15.414062 33.21875 -12.15625 C 33.21875 -9.582031 32.660156 -7.335938 31.546875 -5.421875 C 30.441406 -3.515625 28.769531 -2.035156 26.53125 -0.984375 C 24.289062 0.0664062 21.539062 0.59375 18.28125 0.59375 Z M 18.28125 0.59375 "/></g></g></g><g fill="#0c1d36" fill-opacity="1"><g transform="translate(806.854734, 156.568273)"><g><path d="M 22.5 0.59375 C 18.707031 0.59375 15.367188 -0.175781 12.484375 -1.71875 C 9.597656 -3.257812 7.335938 -5.613281 5.703125 -8.78125 C 4.066406 -11.957031 3.25 -15.90625 3.25 -20.625 C 3.25 -25.351562 4.066406 -29.300781 5.703125 -32.46875 C 7.335938 -35.632812 9.597656 -37.988281 12.484375 -39.53125 C 15.367188 -41.082031 18.707031 -41.859375 22.5 -41.859375 C 26.28125 -41.859375 29.609375 -41.085938 32.484375 -39.546875 C 35.359375 -38.015625 37.609375 -35.660156 39.234375 -32.484375 C 40.867188 -29.304688 41.6875 -25.351562 41.6875 -20.625 C 41.6875 -15.90625 40.867188 -11.953125 39.234375 -8.765625 C 37.609375 -5.585938 35.359375 -3.234375 32.484375 -1.703125 C 29.609375 -0.171875 26.28125 0.59375 22.5 0.59375 Z M 22.5 -6.484375 C 25.988281 -6.484375 28.65625 -7.609375 30.5 -9.859375 C 32.34375 -12.109375 33.265625 -15.695312 33.265625 -20.625 C 33.265625 -25.5625 32.34375 -29.15625 30.5 -31.40625 C 28.65625 -33.664062 25.988281 -34.796875 22.5 -34.796875 C 18.976562 -34.796875 16.289062 -33.664062 14.4375 -31.40625 C 12.582031 -29.15625 11.65625 -25.5625 11.65625 -20.625 C 11.65625 -15.695312 12.582031 -12.109375 14.4375 -9.859375 C 16.289062 -7.609375 18.976562 -6.484375 22.5 -6.484375 Z M 22.5 -6.484375 "/></g></g></g><g fill="#0c1d36" fill-opacity="1"><g transform="translate(851.802791, 156.568273)"><g><path d="M 13.515625 -41.265625 L 13.515625 -6.828125 L 32.0625 -6.828125 L 32.0625 0 L 5.359375 0 L 5.359375 -41.265625 Z M 13.515625 -41.265625 "/></g></g></g><g fill="#0c1d36" fill-opacity="1"><g transform="translate(885.210525, 156.568273)"><g><path d="M 21.875 0.59375 C 16.1875 0.59375 11.96875 -0.753906 9.21875 -3.453125 C 6.476562 -6.148438 5.109375 -10.15625 5.109375 -15.46875 L 5.109375 -41.265625 L 13.09375 -41.265625 L 13.09375 -15.515625 C 13.09375 -12.503906 13.816406 -10.242188 15.265625 -8.734375 C 16.710938 -7.234375 18.914062 -6.484375 21.875 -6.484375 C 27.71875 -6.484375 30.640625 -9.492188 30.640625 -15.515625 L 30.640625 -41.265625 L 38.640625 -41.265625 L 38.640625 -15.46875 C 38.640625 -10.15625 37.265625 -6.148438 34.515625 -3.453125 C 31.765625 -0.753906 27.550781 0.59375 21.875 0.59375 Z M 21.875 0.59375 "/></g></g></g><g fill="#0c1d36" fill-opacity="1"><g transform="translate(928.945346, 156.568273)"><g><path d="M 33.078125 -41.265625 L 33.078125 -34.40625 L 21.171875 -34.40625 L 21.171875 0 L 13.03125 0 L 13.03125 -34.40625 L 1.125 -34.40625 L 1.125 -41.265625 Z M 33.078125 -41.265625 "/></g></g></g><g fill="#0c1d36" fill-opacity="1"><g transform="translate(963.143128, 156.568273)"><g><path d="M 13.515625 0 L 5.359375 0 L 5.359375 -41.265625 L 13.515625 -41.265625 Z M 13.515625 0 "/></g></g></g><g fill="#0c1d36" fill-opacity="1"><g transform="translate(982.047808, 156.568273)"><g><path d="M 22.5 0.59375 C 18.707031 0.59375 15.367188 -0.175781 12.484375 -1.71875 C 9.597656 -3.257812 7.335938 -5.613281 5.703125 -8.78125 C 4.066406 -11.957031 3.25 -15.90625 3.25 -20.625 C 3.25 -25.351562 4.066406 -29.300781 5.703125 -32.46875 C 7.335938 -35.632812 9.597656 -37.988281 12.484375 -39.53125 C 15.367188 -41.082031 18.707031 -41.859375 22.5 -41.859375 C 26.28125 -41.859375 29.609375 -41.085938 32.484375 -39.546875 C 35.359375 -38.015625 37.609375 -35.660156 39.234375 -32.484375 C 40.867188 -29.304688 41.6875 -25.351562 41.6875 -20.625 C 41.6875 -15.90625 40.867188 -11.953125 39.234375 -8.765625 C 37.609375 -5.585938 35.359375 -3.234375 32.484375 -1.703125 C 29.609375 -0.171875 26.28125 0.59375 22.5 0.59375 Z M 22.5 -6.484375 C 25.988281 -6.484375 28.65625 -7.609375 30.5 -9.859375 C 32.34375 -12.109375 33.265625 -15.695312 33.265625 -20.625 C 33.265625 -25.5625 32.34375 -29.15625 30.5 -31.40625 C 28.65625 -33.664062 25.988281 -34.796875 22.5 -34.796875 C 18.976562 -34.796875 16.289062 -33.664062 14.4375 -31.40625 C 12.582031 -29.15625 11.65625 -25.5625 11.65625 -20.625 C 11.65625 -15.695312 12.582031 -12.109375 14.4375 -9.859375 C 16.289062 -7.609375 18.976562 -6.484375 22.5 -6.484375 Z M 22.5 -6.484375 "/></g></g></g><g fill="#0c1d36" fill-opacity="1"><g transform="translate(1026.995935, 156.568273)"><g><path d="M 13.265625 0 L 5.359375 0 L 5.359375 -41.265625 L 14.703125 -41.265625 L 31.265625 -14.671875 L 32 -14.78125 L 32 -41.265625 L 39.84375 -41.265625 L 39.84375 0 L 31.5 0 L 13.96875 -28.390625 L 13.265625 -28.28125 Z M 13.265625 0 "/></g></g></g><g fill="#0c1d36" fill-opacity="1"><g transform="translate(1072.226188, 156.568273)"><g><path d="M 18.28125 0.59375 C 15.425781 0.59375 12.882812 0.238281 10.65625 -0.46875 C 8.425781 -1.175781 6.566406 -2.101562 5.078125 -3.25 C 3.585938 -4.394531 2.453125 -5.65625 1.671875 -7.03125 L 6.15625 -12.5 L 6.859375 -12.5 C 8.097656 -10.65625 9.671875 -9.1875 11.578125 -8.09375 C 13.492188 -7.007812 15.726562 -6.46875 18.28125 -6.46875 C 20.46875 -6.46875 22.113281 -6.925781 23.21875 -7.84375 C 24.332031 -8.769531 24.890625 -10.039062 24.890625 -11.65625 C 24.890625 -12.632812 24.707031 -13.453125 24.34375 -14.109375 C 23.988281 -14.765625 23.394531 -15.328125 22.5625 -15.796875 C 21.738281 -16.273438 20.625 -16.679688 19.21875 -17.015625 L 13.90625 -18.234375 C 10.207031 -19.078125 7.445312 -20.484375 5.625 -22.453125 C 3.8125 -24.421875 2.90625 -26.972656 2.90625 -30.109375 C 2.90625 -32.441406 3.488281 -34.492188 4.65625 -36.265625 C 5.820312 -38.035156 7.519531 -39.410156 9.75 -40.390625 C 11.976562 -41.367188 14.644531 -41.859375 17.75 -41.859375 C 20.925781 -41.859375 23.648438 -41.4375 25.921875 -40.59375 C 28.191406 -39.757812 30.109375 -38.476562 31.671875 -36.75 L 27.625 -31.21875 L 26.921875 -31.21875 C 25.753906 -32.4375 24.414062 -33.347656 22.90625 -33.953125 C 21.40625 -34.566406 19.6875 -34.875 17.75 -34.875 C 15.507812 -34.875 13.804688 -34.476562 12.640625 -33.6875 C 11.472656 -32.90625 10.890625 -31.816406 10.890625 -30.421875 C 10.890625 -29.117188 11.296875 -28.082031 12.109375 -27.3125 C 12.929688 -26.539062 14.351562 -25.941406 16.375 -25.515625 L 21.78125 -24.390625 C 25.789062 -23.535156 28.695312 -22.097656 30.5 -20.078125 C 32.3125 -18.054688 33.21875 -15.414062 33.21875 -12.15625 C 33.21875 -9.582031 32.660156 -7.335938 31.546875 -5.421875 C 30.441406 -3.515625 28.769531 -2.035156 26.53125 -0.984375 C 24.289062 0.0664062 21.539062 0.59375 18.28125 0.59375 Z M 18.28125 0.59375 "/></g></g></g><g fill="#0c1d36" fill-opacity="1"><g transform="translate(81.471446, 222.021022)"><g><path d="M 9.34375 -16.375 L 9.34375 -3.375 L 27.046875 -3.375 L 27.046875 0 L 5.25 0 L 5.25 -34.75 L 26.671875 -34.75 L 26.671875 -31.375 L 9.34375 -31.375 L 9.34375 -19.75 L 24.625 -19.75 L 24.625 -16.375 Z M 9.34375 -16.375 "/></g></g></g><g fill="#0c1d36" fill-opacity="1"><g transform="translate(110.814963, 222.021022)"><g><path d="M 5.46875 0 L 1.1875 0 L 9.296875 -13.59375 L 1.59375 -26.21875 L 5.96875 -26.21875 L 12.03125 -16.140625 L 12.578125 -16.140625 L 18.65625 -26.21875 L 22.84375 -26.21875 L 15.328125 -13.59375 L 23.25 0 L 18.875 0 L 12.40625 -11.078125 L 11.859375 -11.078125 Z M 5.46875 0 "/></g></g></g><g fill="#0c1d36" fill-opacity="1"><g transform="translate(135.24016, 222.021022)"><g><path d="M 15.046875 0.5 C 12.734375 0.5 10.65625 -0.0234375 8.8125 -1.078125 C 6.976562 -2.128906 5.53125 -3.679688 4.46875 -5.734375 C 3.40625 -7.785156 2.875 -10.238281 2.875 -13.09375 C 2.875 -15.957031 3.40625 -18.414062 4.46875 -20.46875 C 5.53125 -22.519531 6.976562 -24.070312 8.8125 -25.125 C 10.65625 -26.1875 12.734375 -26.71875 15.046875 -26.71875 C 17.816406 -26.71875 20.019531 -26.191406 21.65625 -25.140625 C 23.300781 -24.097656 24.488281 -22.707031 25.21875 -20.96875 L 22.578125 -19.0625 L 22.109375 -19.0625 C 21.390625 -20.5 20.472656 -21.554688 19.359375 -22.234375 C 18.242188 -22.910156 16.804688 -23.25 15.046875 -23.25 C 13.429688 -23.25 12.007812 -22.867188 10.78125 -22.109375 C 9.5625 -21.347656 8.613281 -20.203125 7.9375 -18.671875 C 7.269531 -17.148438 6.9375 -15.289062 6.9375 -13.09375 C 6.9375 -10.90625 7.273438 -9.054688 7.953125 -7.546875 C 8.640625 -6.035156 9.585938 -4.894531 10.796875 -4.125 C 12.015625 -3.351562 13.429688 -2.96875 15.046875 -2.96875 C 16.867188 -2.96875 18.375 -3.378906 19.5625 -4.203125 C 20.757812 -5.023438 21.703125 -6.328125 22.390625 -8.109375 L 22.890625 -8.109375 L 25.421875 -6.609375 C 24.742188 -4.398438 23.53125 -2.660156 21.78125 -1.390625 C 20.03125 -0.128906 17.785156 0.5 15.046875 0.5 Z M 15.046875 0.5 "/></g></g></g><g fill="#0c1d36" fill-opacity="1"><g transform="translate(162.255205, 222.021022)"><g><path d="M 24.984375 -12.21875 L 6.96875 -12.21875 C 7.070312 -9.03125 7.832031 -6.691406 9.25 -5.203125 C 10.675781 -3.710938 12.625 -2.96875 15.09375 -2.96875 C 16.957031 -2.96875 18.457031 -3.300781 19.59375 -3.96875 C 20.738281 -4.632812 21.640625 -5.679688 22.296875 -7.109375 L 22.796875 -7.109375 L 25.3125 -5.609375 C 24.550781 -3.703125 23.332031 -2.207031 21.65625 -1.125 C 19.988281 -0.0390625 17.800781 0.5 15.09375 0.5 C 12.550781 0.5 10.367188 0 8.546875 -1 C 6.734375 -2 5.332031 -3.507812 4.34375 -5.53125 C 3.363281 -7.5625 2.875 -10.082031 2.875 -13.09375 C 2.875 -16.070312 3.390625 -18.582031 4.421875 -20.625 C 5.460938 -22.664062 6.882812 -24.191406 8.6875 -25.203125 C 10.488281 -26.210938 12.546875 -26.71875 14.859375 -26.71875 C 18.210938 -26.71875 20.832031 -25.769531 22.71875 -23.875 C 24.601562 -21.976562 25.554688 -19.171875 25.578125 -15.453125 C 25.578125 -13.992188 25.546875 -13.007812 25.484375 -12.5 Z M 21.75 -15.453125 C 21.6875 -18.234375 21.066406 -20.257812 19.890625 -21.53125 C 18.722656 -22.800781 17.046875 -23.4375 14.859375 -23.4375 C 12.554688 -23.4375 10.75 -22.796875 9.4375 -21.515625 C 8.132812 -20.242188 7.34375 -18.222656 7.0625 -15.453125 Z M 21.75 -15.453125 "/></g></g></g><g fill="#0c1d36" fill-opacity="1"><g transform="translate(190.19687, 222.021022)"><g><path d="M 24.984375 -12.21875 L 6.96875 -12.21875 C 7.070312 -9.03125 7.832031 -6.691406 9.25 -5.203125 C 10.675781 -3.710938 12.625 -2.96875 15.09375 -2.96875 C 16.957031 -2.96875 18.457031 -3.300781 19.59375 -3.96875 C 20.738281 -4.632812 21.640625 -5.679688 22.296875 -7.109375 L 22.796875 -7.109375 L 25.3125 -5.609375 C 24.550781 -3.703125 23.332031 -2.207031 21.65625 -1.125 C 19.988281 -0.0390625 17.800781 0.5 15.09375 0.5 C 12.550781 0.5 10.367188 0 8.546875 -1 C 6.734375 -2 5.332031 -3.507812 4.34375 -5.53125 C 3.363281 -7.5625 2.875 -10.082031 2.875 -13.09375 C 2.875 -16.070312 3.390625 -18.582031 4.421875 -20.625 C 5.460938 -22.664062 6.882812 -24.191406 8.6875 -25.203125 C 10.488281 -26.210938 12.546875 -26.71875 14.859375 -26.71875 C 18.210938 -26.71875 20.832031 -25.769531 22.71875 -23.875 C 24.601562 -21.976562 25.554688 -19.171875 25.578125 -15.453125 C 25.578125 -13.992188 25.546875 -13.007812 25.484375 -12.5 Z M 21.75 -15.453125 C 21.6875 -18.234375 21.066406 -20.257812 19.890625 -21.53125 C 18.722656 -22.800781 17.046875 -23.4375 14.859375 -23.4375 C 12.554688 -23.4375 10.75 -22.796875 9.4375 -21.515625 C 8.132812 -20.242188 7.34375 -18.222656 7.0625 -15.453125 Z M 21.75 -15.453125 "/></g></g></g><g fill="#0c1d36" fill-opacity="1"><g transform="translate(218.138535, 222.021022)"><g><path d="M 13.59375 0.5 C 11.488281 0.5 9.628906 0 8.015625 -1 C 6.410156 -2.007812 5.148438 -3.53125 4.234375 -5.5625 C 3.328125 -7.59375 2.875 -10.101562 2.875 -13.09375 C 2.875 -16.09375 3.347656 -18.609375 4.296875 -20.640625 C 5.253906 -22.671875 6.566406 -24.191406 8.234375 -25.203125 C 9.898438 -26.210938 11.835938 -26.71875 14.046875 -26.71875 C 15.785156 -26.71875 17.351562 -26.382812 18.75 -25.71875 C 20.144531 -25.0625 21.34375 -23.984375 22.34375 -22.484375 L 22.84375 -22.578125 L 22.84375 -36.734375 L 26.71875 -36.734375 L 26.71875 0 L 22.84375 0 L 22.84375 -3.828125 L 22.34375 -3.921875 C 21.488281 -2.617188 20.328125 -1.554688 18.859375 -0.734375 C 17.390625 0.0859375 15.632812 0.5 13.59375 0.5 Z M 14.8125 -2.96875 C 17.25 -2.96875 19.195312 -3.800781 20.65625 -5.46875 C 22.113281 -7.144531 22.84375 -9.6875 22.84375 -13.09375 C 22.84375 -16.519531 22.113281 -19.066406 20.65625 -20.734375 C 19.195312 -22.410156 17.25 -23.25 14.8125 -23.25 C 12.289062 -23.25 10.347656 -22.429688 8.984375 -20.796875 C 7.617188 -19.160156 6.9375 -16.59375 6.9375 -13.09375 C 6.9375 -6.34375 9.5625 -2.96875 14.8125 -2.96875 Z M 14.8125 -2.96875 "/></g></g></g><g fill="#0c1d36" fill-opacity="1"><g transform="translate(249.430366, 222.021022)"><g><path d="M 6.515625 -31.28125 C 5.691406 -31.28125 5.019531 -31.535156 4.5 -32.046875 C 3.988281 -32.554688 3.734375 -33.210938 3.734375 -34.015625 C 3.734375 -34.804688 3.988281 -35.457031 4.5 -35.96875 C 5.019531 -36.476562 5.691406 -36.734375 6.515625 -36.734375 C 7.335938 -36.734375 8.003906 -36.476562 8.515625 -35.96875 C 9.035156 -35.457031 9.296875 -34.804688 9.296875 -34.015625 C 9.296875 -33.210938 9.035156 -32.554688 8.515625 -32.046875 C 8.003906 -31.535156 7.335938 -31.28125 6.515625 -31.28125 Z M 4.5625 0 L 4.5625 -26.21875 L 8.4375 -26.21875 L 8.4375 0 Z M 4.5625 0 "/></g></g></g><g fill="#0c1d36" fill-opacity="1"><g transform="translate(262.427059, 222.021022)"><g><path d="M 4.5625 0 L 4.5625 -26.21875 L 8.25 -26.21875 L 8.25 -22.109375 L 8.75 -21.984375 C 9.613281 -23.515625 10.722656 -24.6875 12.078125 -25.5 C 13.429688 -26.3125 15.085938 -26.71875 17.046875 -26.71875 C 20.191406 -26.71875 22.472656 -25.910156 23.890625 -24.296875 C 25.304688 -22.691406 26.015625 -20.21875 26.015625 -16.875 L 26.015625 0 L 22.15625 0 L 22.15625 -16.78125 C 22.15625 -18.363281 21.953125 -19.632812 21.546875 -20.59375 C 21.140625 -21.550781 20.507812 -22.25 19.65625 -22.6875 C 18.8125 -23.125 17.703125 -23.34375 16.328125 -23.34375 C 13.960938 -23.34375 12.054688 -22.5625 10.609375 -21 C 9.160156 -19.4375 8.4375 -16.921875 8.4375 -13.453125 L 8.4375 0 Z M 4.5625 0 "/></g></g></g><g fill="#0c1d36" fill-opacity="1"><g transform="translate(292.602156, 222.021022)"><g><path d="M 13.5 11.125 C 9.363281 11.125 6.34375 10.429688 4.4375 9.046875 C 2.539062 7.671875 1.59375 5.84375 1.59375 3.5625 C 1.59375 2.09375 2.035156 0.921875 2.921875 0.046875 C 3.804688 -0.828125 5.097656 -1.453125 6.796875 -1.828125 L 6.796875 -2.328125 C 5.984375 -2.785156 5.375 -3.320312 4.96875 -3.9375 C 4.570312 -4.5625 4.375 -5.300781 4.375 -6.15625 C 4.375 -7.164062 4.691406 -7.988281 5.328125 -8.625 C 5.972656 -9.257812 6.929688 -9.742188 8.203125 -10.078125 L 8.203125 -10.578125 C 5.347656 -12.078125 3.921875 -14.523438 3.921875 -17.921875 C 3.921875 -19.628906 4.304688 -21.148438 5.078125 -22.484375 C 5.859375 -23.816406 6.96875 -24.851562 8.40625 -25.59375 C 9.851562 -26.34375 11.535156 -26.71875 13.453125 -26.71875 C 15.648438 -26.71875 17.488281 -26.234375 18.96875 -25.265625 C 19.519531 -25.878906 19.929688 -26.539062 20.203125 -27.25 C 20.484375 -27.957031 20.664062 -28.753906 20.75 -29.640625 L 21.25 -29.9375 L 24.4375 -29.1875 C 24.269531 -27.851562 23.863281 -26.726562 23.21875 -25.8125 C 22.582031 -24.894531 21.679688 -24.132812 20.515625 -23.53125 L 20.515625 -23.03125 C 21.347656 -22.363281 21.96875 -21.582031 22.375 -20.6875 C 22.78125 -19.789062 22.984375 -18.75 22.984375 -17.5625 C 22.984375 -15.914062 22.585938 -14.429688 21.796875 -13.109375 C 21.003906 -11.796875 19.882812 -10.765625 18.4375 -10.015625 C 17 -9.265625 15.335938 -8.890625 13.453125 -8.890625 C 13.234375 -8.890625 12.835938 -8.90625 12.265625 -8.9375 C 11.628906 -8.96875 11.160156 -8.984375 10.859375 -8.984375 C 10.035156 -8.984375 9.378906 -8.769531 8.890625 -8.34375 C 8.398438 -7.914062 8.15625 -7.367188 8.15625 -6.703125 C 8.15625 -5.878906 8.421875 -5.269531 8.953125 -4.875 C 9.484375 -4.488281 10.359375 -4.273438 11.578125 -4.234375 L 17.78125 -4.015625 C 20.457031 -3.921875 22.441406 -3.296875 23.734375 -2.140625 C 25.023438 -0.992188 25.671875 0.628906 25.671875 2.734375 C 25.671875 4.296875 25.25 5.707031 24.40625 6.96875 C 23.5625 8.226562 22.226562 9.234375 20.40625 9.984375 C 18.59375 10.742188 16.289062 11.125 13.5 11.125 Z M 13.453125 -12.21875 C 15.304688 -12.21875 16.738281 -12.695312 17.75 -13.65625 C 18.769531 -14.625 19.28125 -15.984375 19.28125 -17.734375 C 19.28125 -19.535156 18.773438 -20.925781 17.765625 -21.90625 C 16.753906 -22.894531 15.316406 -23.390625 13.453125 -23.390625 C 11.578125 -23.390625 10.148438 -22.898438 9.171875 -21.921875 C 8.191406 -20.953125 7.703125 -19.554688 7.703125 -17.734375 C 7.703125 -15.972656 8.191406 -14.613281 9.171875 -13.65625 C 10.148438 -12.695312 11.578125 -12.21875 13.453125 -12.21875 Z M 13.5 7.796875 C 15.425781 7.796875 17.003906 7.582031 18.234375 7.15625 C 19.460938 6.726562 20.347656 6.160156 20.890625 5.453125 C 21.429688 4.742188 21.703125 3.957031 21.703125 3.09375 C 21.703125 2.3125 21.550781 1.679688 21.25 1.203125 C 20.957031 0.734375 20.488281 0.378906 19.84375 0.140625 C 19.195312 -0.0976562 18.3125 -0.25 17.1875 -0.3125 L 11.3125 -0.59375 L 10.484375 -0.59375 C 7.203125 -0.539062 5.5625 0.734375 5.5625 3.234375 C 5.5625 6.273438 8.207031 7.796875 13.5 7.796875 Z M 13.5 7.796875 "/></g></g></g><g fill="#0c1d36" fill-opacity="1"><g transform="translate(319.450864, 222.021022)"><g/></g></g><g fill="#0c1d36" fill-opacity="1"><g transform="translate(331.378344, 222.021022)"><g><path d="M 5.25 11.125 C 4.363281 11.125 3.535156 11.046875 2.765625 10.890625 C 1.992188 10.742188 1.332031 10.535156 0.78125 10.265625 L 1.5 7.203125 L 1.921875 7.0625 C 2.304688 7.25 2.78125 7.410156 3.34375 7.546875 C 3.914062 7.679688 4.503906 7.75 5.109375 7.75 C 6.171875 7.75 7.050781 7.601562 7.75 7.3125 C 8.445312 7.03125 9.046875 6.5625 9.546875 5.90625 C 10.046875 5.25 10.507812 4.34375 10.9375 3.1875 L 11.859375 0.625 L 1.328125 -26.21875 L 5.515625 -26.21875 L 13.765625 -4.828125 L 14.21875 -4.828125 L 22.203125 -26.21875 L 26.171875 -26.21875 L 14.453125 4.109375 C 13.785156 5.785156 13.039062 7.132812 12.21875 8.15625 C 11.394531 9.1875 10.421875 9.9375 9.296875 10.40625 C 8.171875 10.882812 6.820312 11.125 5.25 11.125 Z M 5.25 11.125 "/></g></g></g><g fill="#0c1d36" fill-opacity="1"><g transform="translate(359.011147, 222.021022)"><g><path d="M 15.046875 0.5 C 12.578125 0.5 10.425781 -0.0195312 8.59375 -1.0625 C 6.757812 -2.113281 5.347656 -3.65625 4.359375 -5.6875 C 3.367188 -7.726562 2.875 -10.195312 2.875 -13.09375 C 2.875 -15.988281 3.367188 -18.457031 4.359375 -20.5 C 5.347656 -22.550781 6.757812 -24.097656 8.59375 -25.140625 C 10.425781 -26.191406 12.578125 -26.71875 15.046875 -26.71875 C 17.515625 -26.71875 19.660156 -26.191406 21.484375 -25.140625 C 23.316406 -24.097656 24.726562 -22.550781 25.71875 -20.5 C 26.71875 -18.457031 27.21875 -15.988281 27.21875 -13.09375 C 27.21875 -10.195312 26.71875 -7.726562 25.71875 -5.6875 C 24.726562 -3.65625 23.316406 -2.113281 21.484375 -1.0625 C 19.660156 -0.0195312 17.515625 0.5 15.046875 0.5 Z M 15.046875 -2.96875 C 17.660156 -2.96875 19.660156 -3.789062 21.046875 -5.4375 C 22.429688 -7.082031 23.125 -9.632812 23.125 -13.09375 C 23.125 -16.5625 22.429688 -19.117188 21.046875 -20.765625 C 19.660156 -22.421875 17.660156 -23.25 15.046875 -23.25 C 12.429688 -23.25 10.425781 -22.421875 9.03125 -20.765625 C 7.632812 -19.109375 6.9375 -16.550781 6.9375 -13.09375 C 6.9375 -9.632812 7.632812 -7.082031 9.03125 -5.4375 C 10.425781 -3.789062 12.429688 -2.96875 15.046875 -2.96875 Z M 15.046875 -2.96875 "/></g></g></g><g fill="#0c1d36" fill-opacity="1"><g transform="translate(389.091204, 222.021022)"><g><path d="M 12.953125 0.5 C 9.992188 0.5 7.785156 -0.28125 6.328125 -1.84375 C 4.878906 -3.414062 4.15625 -5.71875 4.15625 -8.75 L 4.15625 -26.21875 L 8.03125 -26.21875 L 8.03125 -8.84375 C 8.03125 -4.863281 9.898438 -2.875 13.640625 -2.875 C 16.015625 -2.875 17.890625 -3.648438 19.265625 -5.203125 C 20.648438 -6.753906 21.34375 -9.273438 21.34375 -12.765625 L 21.34375 -26.21875 L 25.21875 -26.21875 L 25.21875 0 L 21.5625 0 L 21.5625 -4.109375 L 21.0625 -4.234375 C 20.15625 -2.628906 19.070312 -1.4375 17.8125 -0.65625 C 16.550781 0.113281 14.929688 0.5 12.953125 0.5 Z M 12.953125 0.5 "/></g></g></g><g fill="#0c1d36" fill-opacity="1"><g transform="translate(418.8624, 222.021022)"><g><path d="M 4.5625 0 L 4.5625 -26.21875 L 8.25 -26.21875 L 8.25 -22.109375 L 8.75 -21.984375 C 9.96875 -24.960938 12.265625 -26.453125 15.640625 -26.453125 C 17.429688 -26.453125 18.769531 -26.128906 19.65625 -25.484375 L 18.65625 -22.203125 L 18.1875 -22.109375 C 17.195312 -22.597656 16.117188 -22.84375 14.953125 -22.84375 C 12.859375 -22.84375 11.25 -22.054688 10.125 -20.484375 C 9 -18.921875 8.4375 -16.378906 8.4375 -12.859375 L 8.4375 0 Z M 4.5625 0 "/></g></g></g><g fill="#0c1d36" fill-opacity="1"><g transform="translate(439.105851, 222.021022)"><g/></g></g><g fill="#0c1d36" fill-opacity="1"><g transform="translate(451.033331, 222.021022)"><g><path d="M 9.34375 -16.375 L 9.34375 -3.375 L 27.046875 -3.375 L 27.046875 0 L 5.25 0 L 5.25 -34.75 L 26.671875 -34.75 L 26.671875 -31.375 L 9.34375 -31.375 L 9.34375 -19.75 L 24.625 -19.75 L 24.625 -16.375 Z M 9.34375 -16.375 "/></g></g></g><g fill="#0c1d36" fill-opacity="1"><g transform="translate(480.376848, 222.021022)"><g><path d="M 5.46875 0 L 1.1875 0 L 9.296875 -13.59375 L 1.59375 -26.21875 L 5.96875 -26.21875 L 12.03125 -16.140625 L 12.578125 -16.140625 L 18.65625 -26.21875 L 22.84375 -26.21875 L 15.328125 -13.59375 L 23.25 0 L 18.875 0 L 12.40625 -11.078125 L 11.859375 -11.078125 Z M 5.46875 0 "/></g></g></g><g fill="#0c1d36" fill-opacity="1"><g transform="translate(504.802045, 222.021022)"><g><path d="M 4.5625 10.625 L 4.5625 -26.21875 L 8.4375 -26.21875 L 8.4375 -22.296875 L 8.9375 -22.203125 C 10.882812 -25.210938 13.742188 -26.71875 17.515625 -26.71875 C 19.703125 -26.71875 21.609375 -26.21875 23.234375 -25.21875 C 24.867188 -24.21875 26.140625 -22.695312 27.046875 -20.65625 C 27.953125 -18.625 28.40625 -16.101562 28.40625 -13.09375 C 28.40625 -10.101562 27.925781 -7.59375 26.96875 -5.5625 C 26.019531 -3.53125 24.707031 -2.007812 23.03125 -1 C 21.351562 0 19.421875 0.5 17.234375 0.5 C 15.453125 0.5 13.875 0.191406 12.5 -0.421875 C 11.125 -1.046875 9.9375 -2.0625 8.9375 -3.46875 L 8.4375 -3.375 L 8.4375 10.625 Z M 16.375 -2.96875 C 21.6875 -2.96875 24.34375 -6.34375 24.34375 -13.09375 C 24.34375 -19.863281 21.6875 -23.25 16.375 -23.25 C 14.820312 -23.25 13.453125 -22.890625 12.265625 -22.171875 C 11.078125 -21.460938 10.140625 -20.347656 9.453125 -18.828125 C 8.773438 -17.316406 8.4375 -15.40625 8.4375 -13.09375 C 8.4375 -10.800781 8.773438 -8.894531 9.453125 -7.375 C 10.140625 -5.863281 11.078125 -4.75 12.265625 -4.03125 C 13.453125 -3.320312 14.820312 -2.96875 16.375 -2.96875 Z M 16.375 -2.96875 "/></g></g></g><g fill="#0c1d36" fill-opacity="1"><g transform="translate(536.070098, 222.021022)"><g><path d="M 24.984375 -12.21875 L 6.96875 -12.21875 C 7.070312 -9.03125 7.832031 -6.691406 9.25 -5.203125 C 10.675781 -3.710938 12.625 -2.96875 15.09375 -2.96875 C 16.957031 -2.96875 18.457031 -3.300781 19.59375 -3.96875 C 20.738281 -4.632812 21.640625 -5.679688 22.296875 -7.109375 L 22.796875 -7.109375 L 25.3125 -5.609375 C 24.550781 -3.703125 23.332031 -2.207031 21.65625 -1.125 C 19.988281 -0.0390625 17.800781 0.5 15.09375 0.5 C 12.550781 0.5 10.367188 0 8.546875 -1 C 6.734375 -2 5.332031 -3.507812 4.34375 -5.53125 C 3.363281 -7.5625 2.875 -10.082031 2.875 -13.09375 C 2.875 -16.070312 3.390625 -18.582031 4.421875 -20.625 C 5.460938 -22.664062 6.882812 -24.191406 8.6875 -25.203125 C 10.488281 -26.210938 12.546875 -26.71875 14.859375 -26.71875 C 18.210938 -26.71875 20.832031 -25.769531 22.71875 -23.875 C 24.601562 -21.976562 25.554688 -19.171875 25.578125 -15.453125 C 25.578125 -13.992188 25.546875 -13.007812 25.484375 -12.5 Z M 21.75 -15.453125 C 21.6875 -18.234375 21.066406 -20.257812 19.890625 -21.53125 C 18.722656 -22.800781 17.046875 -23.4375 14.859375 -23.4375 C 12.554688 -23.4375 10.75 -22.796875 9.4375 -21.515625 C 8.132812 -20.242188 7.34375 -18.222656 7.0625 -15.453125 Z M 21.75 -15.453125 "/></g></g></g><g fill="#0c1d36" fill-opacity="1"><g transform="translate(564.011763, 222.021022)"><g><path d="M 15.046875 0.5 C 12.734375 0.5 10.65625 -0.0234375 8.8125 -1.078125 C 6.976562 -2.128906 5.53125 -3.679688 4.46875 -5.734375 C 3.40625 -7.785156 2.875 -10.238281 2.875 -13.09375 C 2.875 -15.957031 3.40625 -18.414062 4.46875 -20.46875 C 5.53125 -22.519531 6.976562 -24.070312 8.8125 -25.125 C 10.65625 -26.1875 12.734375 -26.71875 15.046875 -26.71875 C 17.816406 -26.71875 20.019531 -26.191406 21.65625 -25.140625 C 23.300781 -24.097656 24.488281 -22.707031 25.21875 -20.96875 L 22.578125 -19.0625 L 22.109375 -19.0625 C 21.390625 -20.5 20.472656 -21.554688 19.359375 -22.234375 C 18.242188 -22.910156 16.804688 -23.25 15.046875 -23.25 C 13.429688 -23.25 12.007812 -22.867188 10.78125 -22.109375 C 9.5625 -21.347656 8.613281 -20.203125 7.9375 -18.671875 C 7.269531 -17.148438 6.9375 -15.289062 6.9375 -13.09375 C 6.9375 -10.90625 7.273438 -9.054688 7.953125 -7.546875 C 8.640625 -6.035156 9.585938 -4.894531 10.796875 -4.125 C 12.015625 -3.351562 13.429688 -2.96875 15.046875 -2.96875 C 16.867188 -2.96875 18.375 -3.378906 19.5625 -4.203125 C 20.757812 -5.023438 21.703125 -6.328125 22.390625 -8.109375 L 22.890625 -8.109375 L 25.421875 -6.609375 C 24.742188 -4.398438 23.53125 -2.660156 21.78125 -1.390625 C 20.03125 -0.128906 17.785156 0.5 15.046875 0.5 Z M 15.046875 0.5 "/></g></g></g><g fill="#0c1d36" fill-opacity="1"><g transform="translate(591.026808, 222.021022)"><g><path d="M 17.734375 -4.15625 L 18.96875 -1.375 C 18.34375 -0.757812 17.523438 -0.296875 16.515625 0.015625 C 15.515625 0.335938 14.429688 0.5 13.265625 0.5 C 8.253906 0.5 5.75 -2.035156 5.75 -7.109375 L 5.75 -23.046875 L 1.1875 -23.046875 L 1.1875 -26.234375 L 5.75 -26.234375 L 5.75 -31.78125 L 9.625 -32.421875 L 9.625 -26.234375 L 18.0625 -26.234375 L 18.0625 -23.046875 L 9.625 -23.046875 L 9.625 -7.484375 C 9.625 -4.472656 10.929688 -2.96875 13.546875 -2.96875 C 14.972656 -2.96875 16.203125 -3.363281 17.234375 -4.15625 Z M 17.734375 -4.15625 "/></g></g></g><g fill="#0c1d36" fill-opacity="1"><g transform="translate(610.98514, 222.021022)"><g><path d="M 10.8125 0.5 C 8.226562 0.5 6.210938 -0.171875 4.765625 -1.515625 C 3.316406 -2.867188 2.59375 -4.796875 2.59375 -7.296875 C 2.59375 -8.847656 2.910156 -10.15625 3.546875 -11.21875 C 4.191406 -12.289062 5.1875 -13.164062 6.53125 -13.84375 C 7.882812 -14.519531 9.644531 -15.039062 11.8125 -15.40625 C 13.707031 -15.71875 15.148438 -16.070312 16.140625 -16.46875 C 17.140625 -16.863281 17.804688 -17.304688 18.140625 -17.796875 C 18.484375 -18.285156 18.65625 -18.90625 18.65625 -19.65625 C 18.65625 -20.84375 18.242188 -21.753906 17.421875 -22.390625 C 16.609375 -23.023438 15.300781 -23.34375 13.5 -23.34375 C 11.800781 -23.34375 10.34375 -23.007812 9.125 -22.34375 C 7.914062 -21.6875 6.804688 -20.710938 5.796875 -19.421875 L 5.328125 -19.421875 L 3.421875 -22.109375 C 4.523438 -23.515625 5.929688 -24.632812 7.640625 -25.46875 C 9.359375 -26.300781 11.3125 -26.71875 13.5 -26.71875 C 16.59375 -26.71875 18.867188 -26.039062 20.328125 -24.6875 C 21.796875 -23.332031 22.53125 -21.457031 22.53125 -19.0625 L 22.53125 -5.15625 C 22.53125 -3.695312 23.148438 -2.96875 24.390625 -2.96875 C 24.796875 -2.96875 25.191406 -3.039062 25.578125 -3.1875 L 25.90625 -3.09375 L 26.359375 -0.40625 C 26.066406 -0.21875 25.6875 -0.0703125 25.21875 0.03125 C 24.757812 0.132812 24.285156 0.1875 23.796875 0.1875 C 22.347656 0.1875 21.253906 -0.128906 20.515625 -0.765625 C 19.785156 -1.398438 19.316406 -2.332031 19.109375 -3.5625 L 18.609375 -3.609375 C 17.859375 -2.234375 16.847656 -1.203125 15.578125 -0.515625 C 14.316406 0.160156 12.726562 0.5 10.8125 0.5 Z M 11.671875 -2.59375 C 13.128906 -2.59375 14.390625 -2.925781 15.453125 -3.59375 C 16.523438 -4.269531 17.347656 -5.21875 17.921875 -6.4375 C 18.492188 -7.65625 18.78125 -9.066406 18.78125 -10.671875 L 18.78125 -14 L 18.328125 -14.09375 C 17.734375 -13.675781 17.015625 -13.328125 16.171875 -13.046875 C 15.335938 -12.773438 14.171875 -12.53125 12.671875 -12.3125 C 11.148438 -12.101562 9.941406 -11.785156 9.046875 -11.359375 C 8.148438 -10.929688 7.507812 -10.390625 7.125 -9.734375 C 6.75 -9.078125 6.5625 -8.265625 6.5625 -7.296875 C 6.5625 -5.753906 7.007812 -4.582031 7.90625 -3.78125 C 8.8125 -2.988281 10.066406 -2.59375 11.671875 -2.59375 Z M 11.671875 -2.59375 "/></g></g></g><g fill="#0c1d36" fill-opacity="1"><g transform="translate(638.095225, 222.021022)"><g><path d="M 17.734375 -4.15625 L 18.96875 -1.375 C 18.34375 -0.757812 17.523438 -0.296875 16.515625 0.015625 C 15.515625 0.335938 14.429688 0.5 13.265625 0.5 C 8.253906 0.5 5.75 -2.035156 5.75 -7.109375 L 5.75 -23.046875 L 1.1875 -23.046875 L 1.1875 -26.234375 L 5.75 -26.234375 L 5.75 -31.78125 L 9.625 -32.421875 L 9.625 -26.234375 L 18.0625 -26.234375 L 18.0625 -23.046875 L 9.625 -23.046875 L 9.625 -7.484375 C 9.625 -4.472656 10.929688 -2.96875 13.546875 -2.96875 C 14.972656 -2.96875 16.203125 -3.363281 17.234375 -4.15625 Z M 17.734375 -4.15625 "/></g></g></g><g fill="#0c1d36" fill-opacity="1"><g transform="translate(658.053557, 222.021022)"><g><path d="M 6.515625 -31.28125 C 5.691406 -31.28125 5.019531 -31.535156 4.5 -32.046875 C 3.988281 -32.554688 3.734375 -33.210938 3.734375 -34.015625 C 3.734375 -34.804688 3.988281 -35.457031 4.5 -35.96875 C 5.019531 -36.476562 5.691406 -36.734375 6.515625 -36.734375 C 7.335938 -36.734375 8.003906 -36.476562 8.515625 -35.96875 C 9.035156 -35.457031 9.296875 -34.804688 9.296875 -34.015625 C 9.296875 -33.210938 9.035156 -32.554688 8.515625 -32.046875 C 8.003906 -31.535156 7.335938 -31.28125 6.515625 -31.28125 Z M 4.5625 0 L 4.5625 -26.21875 L 8.4375 -26.21875 L 8.4375 0 Z M 4.5625 0 "/></g></g></g><g fill="#0c1d36" fill-opacity="1"><g transform="translate(671.050251, 222.021022)"><g><path d="M 15.046875 0.5 C 12.578125 0.5 10.425781 -0.0195312 8.59375 -1.0625 C 6.757812 -2.113281 5.347656 -3.65625 4.359375 -5.6875 C 3.367188 -7.726562 2.875 -10.195312 2.875 -13.09375 C 2.875 -15.988281 3.367188 -18.457031 4.359375 -20.5 C 5.347656 -22.550781 6.757812 -24.097656 8.59375 -25.140625 C 10.425781 -26.191406 12.578125 -26.71875 15.046875 -26.71875 C 17.515625 -26.71875 19.660156 -26.191406 21.484375 -25.140625 C 23.316406 -24.097656 24.726562 -22.550781 25.71875 -20.5 C 26.71875 -18.457031 27.21875 -15.988281 27.21875 -13.09375 C 27.21875 -10.195312 26.71875 -7.726562 25.71875 -5.6875 C 24.726562 -3.65625 23.316406 -2.113281 21.484375 -1.0625 C 19.660156 -0.0195312 17.515625 0.5 15.046875 0.5 Z M 15.046875 -2.96875 C 17.660156 -2.96875 19.660156 -3.789062 21.046875 -5.4375 C 22.429688 -7.082031 23.125 -9.632812 23.125 -13.09375 C 23.125 -16.5625 22.429688 -19.117188 21.046875 -20.765625 C 19.660156 -22.421875 17.660156 -23.25 15.046875 -23.25 C 12.429688 -23.25 10.425781 -22.421875 9.03125 -20.765625 C 7.632812 -19.109375 6.9375 -16.550781 6.9375 -13.09375 C 6.9375 -9.632812 7.632812 -7.082031 9.03125 -5.4375 C 10.425781 -3.789062 12.429688 -2.96875 15.046875 -2.96875 Z M 15.046875 -2.96875 "/></g></g></g><g fill="#0c1d36" fill-opacity="1"><g transform="translate(701.130273, 222.021022)"><g><path d="M 4.5625 0 L 4.5625 -26.21875 L 8.25 -26.21875 L 8.25 -22.109375 L 8.75 -21.984375 C 9.613281 -23.515625 10.722656 -24.6875 12.078125 -25.5 C 13.429688 -26.3125 15.085938 -26.71875 17.046875 -26.71875 C 20.191406 -26.71875 22.472656 -25.910156 23.890625 -24.296875 C 25.304688 -22.691406 26.015625 -20.21875 26.015625 -16.875 L 26.015625 0 L 22.15625 0 L 22.15625 -16.78125 C 22.15625 -18.363281 21.953125 -19.632812 21.546875 -20.59375 C 21.140625 -21.550781 20.507812 -22.25 19.65625 -22.6875 C 18.8125 -23.125 17.703125 -23.34375 16.328125 -23.34375 C 13.960938 -23.34375 12.054688 -22.5625 10.609375 -21 C 9.160156 -19.4375 8.4375 -16.921875 8.4375 -13.453125 L 8.4375 0 Z M 4.5625 0 "/></g></g></g><g fill="#0c1d36" fill-opacity="1"><g transform="translate(731.305405, 222.021022)"><g><path d="M 11.953125 0.5 C 10.304688 0.5 8.78125 0.28125 7.375 -0.15625 C 5.976562 -0.59375 4.796875 -1.191406 3.828125 -1.953125 C 2.859375 -2.710938 2.175781 -3.566406 1.78125 -4.515625 L 4.0625 -6.890625 L 4.5625 -6.890625 C 5.414062 -5.585938 6.441406 -4.609375 7.640625 -3.953125 C 8.847656 -3.296875 10.285156 -2.96875 11.953125 -2.96875 C 13.890625 -2.96875 15.359375 -3.34375 16.359375 -4.09375 C 17.367188 -4.851562 17.875 -5.90625 17.875 -7.25 C 17.875 -8.28125 17.566406 -9.128906 16.953125 -9.796875 C 16.347656 -10.472656 15.363281 -10.976562 14 -11.3125 L 9.578125 -12.40625 C 7.210938 -12.976562 5.488281 -13.878906 4.40625 -15.109375 C 3.320312 -16.347656 2.78125 -17.878906 2.78125 -19.703125 C 2.78125 -21.128906 3.144531 -22.367188 3.875 -23.421875 C 4.601562 -24.472656 5.648438 -25.285156 7.015625 -25.859375 C 8.390625 -26.429688 10.019531 -26.71875 11.90625 -26.71875 C 14.3125 -26.71875 16.207031 -26.378906 17.59375 -25.703125 C 18.976562 -25.023438 20.0625 -24.085938 20.84375 -22.890625 L 18.65625 -20.75 L 18.1875 -20.75 C 17.34375 -21.71875 16.425781 -22.414062 15.4375 -22.84375 C 14.445312 -23.269531 13.269531 -23.484375 11.90625 -23.484375 C 10.175781 -23.484375 8.851562 -23.171875 7.9375 -22.546875 C 7.019531 -21.929688 6.5625 -21.039062 6.5625 -19.875 C 6.5625 -18.8125 6.882812 -17.953125 7.53125 -17.296875 C 8.1875 -16.648438 9.320312 -16.128906 10.9375 -15.734375 L 15.28125 -14.6875 C 17.5625 -14.144531 19.207031 -13.25 20.21875 -12 C 21.238281 -10.75 21.75 -9.179688 21.75 -7.296875 C 21.75 -5.753906 21.382812 -4.394531 20.65625 -3.21875 C 19.925781 -2.050781 18.820312 -1.140625 17.34375 -0.484375 C 15.875 0.171875 14.078125 0.5 11.953125 0.5 Z M 11.953125 0.5 "/></g></g></g><g fill="#0c1d36" fill-opacity="1"><g transform="translate(755.540522, 222.021022)"><g><path d="M 1.5 7.25 C 2.875 6.34375 4.035156 5.296875 4.984375 4.109375 C 5.941406 2.921875 6.4375 1.613281 6.46875 0.1875 C 5.53125 0.1875 4.796875 -0.0625 4.265625 -0.5625 C 3.734375 -1.070312 3.46875 -1.75 3.46875 -2.59375 C 3.46875 -3.414062 3.722656 -4.09375 4.234375 -4.625 C 4.753906 -5.15625 5.441406 -5.421875 6.296875 -5.421875 C 7.234375 -5.421875 7.988281 -5.09375 8.5625 -4.4375 C 9.144531 -3.789062 9.4375 -2.769531 9.4375 -1.375 C 9.4375 1.09375 8.90625 3.171875 7.84375 4.859375 C 6.78125 6.546875 5.210938 8.085938 3.140625 9.484375 Z M 1.5 7.25 "/></g></g></g><g fill="#0c1d36" fill-opacity="1"><g transform="translate(768.442176, 222.021022)"><g/></g></g><g fill="#0c1d36" fill-opacity="1"><g transform="translate(780.36969, 222.021022)"><g><path d="M 9.34375 -16.375 L 9.34375 -3.375 L 27.046875 -3.375 L 27.046875 0 L 5.25 0 L 5.25 -34.75 L 26.671875 -34.75 L 26.671875 -31.375 L 9.34375 -31.375 L 9.34375 -19.75 L 24.625 -19.75 L 24.625 -16.375 Z M 9.34375 -16.375 "/></g></g></g><g fill="#0c1d36" fill-opacity="1"><g transform="translate(809.713207, 222.021022)"><g><path d="M 16.59375 0 L 11.265625 0 L 1.28125 -26.21875 L 5.46875 -26.21875 L 13.71875 -4.421875 L 14.265625 -4.421875 L 22.4375 -26.21875 L 26.515625 -26.21875 Z M 16.59375 0 "/></g></g></g><g fill="#0c1d36" fill-opacity="1"><g transform="translate(837.488605, 222.021022)"><g><path d="M 24.984375 -12.21875 L 6.96875 -12.21875 C 7.070312 -9.03125 7.832031 -6.691406 9.25 -5.203125 C 10.675781 -3.710938 12.625 -2.96875 15.09375 -2.96875 C 16.957031 -2.96875 18.457031 -3.300781 19.59375 -3.96875 C 20.738281 -4.632812 21.640625 -5.679688 22.296875 -7.109375 L 22.796875 -7.109375 L 25.3125 -5.609375 C 24.550781 -3.703125 23.332031 -2.207031 21.65625 -1.125 C 19.988281 -0.0390625 17.800781 0.5 15.09375 0.5 C 12.550781 0.5 10.367188 0 8.546875 -1 C 6.734375 -2 5.332031 -3.507812 4.34375 -5.53125 C 3.363281 -7.5625 2.875 -10.082031 2.875 -13.09375 C 2.875 -16.070312 3.390625 -18.582031 4.421875 -20.625 C 5.460938 -22.664062 6.882812 -24.191406 8.6875 -25.203125 C 10.488281 -26.210938 12.546875 -26.71875 14.859375 -26.71875 C 18.210938 -26.71875 20.832031 -25.769531 22.71875 -23.875 C 24.601562 -21.976562 25.554688 -19.171875 25.578125 -15.453125 C 25.578125 -13.992188 25.546875 -13.007812 25.484375 -12.5 Z M 21.75 -15.453125 C 21.6875 -18.234375 21.066406 -20.257812 19.890625 -21.53125 C 18.722656 -22.800781 17.046875 -23.4375 14.859375 -23.4375 C 12.554688 -23.4375 10.75 -22.796875 9.4375 -21.515625 C 8.132812 -20.242188 7.34375 -18.222656 7.0625 -15.453125 Z M 21.75 -15.453125 "/></g></g></g><g fill="#0c1d36" fill-opacity="1"><g transform="translate(865.43027, 222.021022)"><g><path d="M 4.5625 0 L 4.5625 -26.21875 L 8.25 -26.21875 L 8.25 -22.109375 L 8.75 -21.984375 C 9.96875 -24.960938 12.265625 -26.453125 15.640625 -26.453125 C 17.429688 -26.453125 18.769531 -26.128906 19.65625 -25.484375 L 18.65625 -22.203125 L 18.1875 -22.109375 C 17.195312 -22.597656 16.117188 -22.84375 14.953125 -22.84375 C 12.859375 -22.84375 11.25 -22.054688 10.125 -20.484375 C 9 -18.921875 8.4375 -16.378906 8.4375 -12.859375 L 8.4375 0 Z M 4.5625 0 "/></g></g></g><g fill="#0c1d36" fill-opacity="1"><g transform="translate(885.673721, 222.021022)"><g><path d="M 5.25 11.125 C 4.363281 11.125 3.535156 11.046875 2.765625 10.890625 C 1.992188 10.742188 1.332031 10.535156 0.78125 10.265625 L 1.5 7.203125 L 1.921875 7.0625 C 2.304688 7.25 2.78125 7.410156 3.34375 7.546875 C 3.914062 7.679688 4.503906 7.75 5.109375 7.75 C 6.171875 7.75 7.050781 7.601562 7.75 7.3125 C 8.445312 7.03125 9.046875 6.5625 9.546875 5.90625 C 10.046875 5.25 10.507812 4.34375 10.9375 3.1875 L 11.859375 0.625 L 1.328125 -26.21875 L 5.515625 -26.21875 L 13.765625 -4.828125 L 14.21875 -4.828125 L 22.203125 -26.21875 L 26.171875 -26.21875 L 14.453125 4.109375 C 13.785156 5.785156 13.039062 7.132812 12.21875 8.15625 C 11.394531 9.1875 10.421875 9.9375 9.296875 10.40625 C 8.171875 10.882812 6.820312 11.125 5.25 11.125 Z M 5.25 11.125 "/></g></g></g><g fill="#0c1d36" fill-opacity="1"><g transform="translate(913.306524, 222.021022)"><g/></g></g><g fill="#0c1d36" fill-opacity="1"><g transform="translate(925.233969, 222.021022)"><g><path d="M 27.109375 -34.75 L 27.109375 -31.28125 L 16.234375 -31.28125 L 16.234375 0 L 12.171875 0 L 12.171875 -31.28125 L 1.28125 -31.28125 L 1.28125 -34.75 Z M 27.109375 -34.75 "/></g></g></g><g fill="#0c1d36" fill-opacity="1"><g transform="translate(953.603277, 222.021022)"><g><path d="M 6.515625 -31.28125 C 5.691406 -31.28125 5.019531 -31.535156 4.5 -32.046875 C 3.988281 -32.554688 3.734375 -33.210938 3.734375 -34.015625 C 3.734375 -34.804688 3.988281 -35.457031 4.5 -35.96875 C 5.019531 -36.476562 5.691406 -36.734375 6.515625 -36.734375 C 7.335938 -36.734375 8.003906 -36.476562 8.515625 -35.96875 C 9.035156 -35.457031 9.296875 -34.804688 9.296875 -34.015625 C 9.296875 -33.210938 9.035156 -32.554688 8.515625 -32.046875 C 8.003906 -31.535156 7.335938 -31.28125 6.515625 -31.28125 Z M 4.5625 0 L 4.5625 -26.21875 L 8.4375 -26.21875 L 8.4375 0 Z M 4.5625 0 "/></g></g></g><g fill="#0c1d36" fill-opacity="1"><g transform="translate(966.59997, 222.021022)"><g><path d="M 4.5625 0 L 4.5625 -26.21875 L 8.25 -26.21875 L 8.25 -22.34375 L 8.75 -22.25 C 9.632812 -23.71875 10.707031 -24.828125 11.96875 -25.578125 C 13.226562 -26.335938 14.738281 -26.71875 16.5 -26.71875 C 18.519531 -26.71875 20.082031 -26.332031 21.1875 -25.5625 C 22.300781 -24.789062 23.171875 -23.550781 23.796875 -21.84375 L 24.28125 -21.84375 C 25.1875 -23.4375 26.300781 -24.644531 27.625 -25.46875 C 28.945312 -26.300781 30.578125 -26.71875 32.515625 -26.71875 C 35.203125 -26.71875 37.207031 -25.988281 38.53125 -24.53125 C 39.851562 -23.070312 40.515625 -20.851562 40.515625 -17.875 L 40.515625 0 L 36.640625 0 L 36.640625 -17.78125 C 36.640625 -19.675781 36.238281 -21.078125 35.4375 -21.984375 C 34.644531 -22.890625 33.359375 -23.34375 31.578125 -23.34375 C 29.492188 -23.34375 27.789062 -22.582031 26.46875 -21.0625 C 25.144531 -19.539062 24.484375 -17.035156 24.484375 -13.546875 L 24.484375 0 L 20.609375 0 L 20.609375 -17.78125 C 20.609375 -19.675781 20.207031 -21.078125 19.40625 -21.984375 C 18.601562 -22.890625 17.316406 -23.34375 15.546875 -23.34375 C 13.453125 -23.34375 11.742188 -22.601562 10.421875 -21.125 C 9.097656 -19.65625 8.4375 -17.265625 8.4375 -13.953125 L 8.4375 0 Z M 4.5625 0 "/></g></g></g><g fill="#0c1d36" fill-opacity="1"><g transform="translate(1011.268617, 222.021022)"><g><path d="M 24.984375 -12.21875 L 6.96875 -12.21875 C 7.070312 -9.03125 7.832031 -6.691406 9.25 -5.203125 C 10.675781 -3.710938 12.625 -2.96875 15.09375 -2.96875 C 16.957031 -2.96875 18.457031 -3.300781 19.59375 -3.96875 C 20.738281 -4.632812 21.640625 -5.679688 22.296875 -7.109375 L 22.796875 -7.109375 L 25.3125 -5.609375 C 24.550781 -3.703125 23.332031 -2.207031 21.65625 -1.125 C 19.988281 -0.0390625 17.800781 0.5 15.09375 0.5 C 12.550781 0.5 10.367188 0 8.546875 -1 C 6.734375 -2 5.332031 -3.507812 4.34375 -5.53125 C 3.363281 -7.5625 2.875 -10.082031 2.875 -13.09375 C 2.875 -16.070312 3.390625 -18.582031 4.421875 -20.625 C 5.460938 -22.664062 6.882812 -24.191406 8.6875 -25.203125 C 10.488281 -26.210938 12.546875 -26.71875 14.859375 -26.71875 C 18.210938 -26.71875 20.832031 -25.769531 22.71875 -23.875 C 24.601562 -21.976562 25.554688 -19.171875 25.578125 -15.453125 C 25.578125 -13.992188 25.546875 -13.007812 25.484375 -12.5 Z M 21.75 -15.453125 C 21.6875 -18.234375 21.066406 -20.257812 19.890625 -21.53125 C 18.722656 -22.800781 17.046875 -23.4375 14.859375 -23.4375 C 12.554688 -23.4375 10.75 -22.796875 9.4375 -21.515625 C 8.132812 -20.242188 7.34375 -18.222656 7.0625 -15.453125 Z M 21.75 -15.453125 "/></g></g></g></svg>