<svg xmlns="http://www.w3.org/2000/svg" xmlns:xlink="http://www.w3.org/1999/xlink" width="2000" zoomAndPan="magnify" viewBox="0 0 1500 337.499995" height="450" preserveAspectRatio="xMidYMid meet" version="1.0"><defs><g/><clipPath id="0621bd19cc"><path d="M 1264 0 L 1498.890625 0 L 1498.890625 321 L 1264 321 Z M 1264 0 " clip-rule="nonzero"/></clipPath><clipPath id="2793fc68e9"><path d="M 392.898438 94.679688 L 1498.890625 94.679688 L 1498.890625 241.546875 L 392.898438 241.546875 Z M 392.898438 94.679688 " clip-rule="nonzero"/></clipPath><clipPath id="639a9949f2"><path d="M 354 0 L 372 0 L 372 337 L 354 337 Z M 354 0 " clip-rule="nonzero"/></clipPath><clipPath id="4ab2f5f6a9"><path d="M 1.109375 85 L 126 85 L 126 246 L 1.109375 246 Z M 1.109375 85 " clip-rule="nonzero"/></clipPath><clipPath id="9dae7dcb72"><path d="M 86 173 L 247 173 L 247 333.320312 L 86 333.320312 Z M 86 173 " clip-rule="nonzero"/></clipPath><clipPath id="51f0a7c4cd"><path d="M 207 85 L 331.371094 85 L 331.371094 246 L 207 246 Z M 207 85 " clip-rule="nonzero"/></clipPath><clipPath id="4fbada0efe"><path d="M 117 3.058594 L 215 3.058594 L 215 175 L 117 175 Z M 117 3.058594 " clip-rule="nonzero"/></clipPath></defs><g fill="#0c1d36" fill-opacity="1"><g transform="translate(392.899818, 311.239806)"><g><path d="M 131.308594 9.472656 C 201.050781 9.472656 244.535156 -29.707031 244.535156 -85.671875 C 244.535156 -130.445312 218.273438 -157.140625 161.015625 -171.777344 L 118.390625 -183.832031 C 86.535156 -192.871094 73.1875 -205.789062 73.1875 -227.746094 C 73.1875 -252.714844 92.5625 -271.65625 122.699219 -271.65625 C 153.695312 -271.65625 175.652344 -249.269531 177.804688 -214.398438 L 226.882812 -225.160156 C 222.578125 -278.976562 181.679688 -314.277344 123.558594 -314.277344 C 59.84375 -314.277344 21.09375 -276.824219 21.09375 -223.007812 C 21.09375 -179.09375 45.203125 -153.265625 99.449219 -138.625 L 142.5 -126.574219 C 177.375 -116.238281 192.011719 -102.464844 192.011719 -80.507812 C 192.011719 -53.816406 169.625 -33.582031 133.03125 -33.582031 C 91.699219 -33.582031 60.703125 -61.5625 58.980469 -104.183594 L 8.179688 -95.144531 C 12.054688 -31.429688 61.132812 9.472656 131.308594 9.472656 Z M 131.308594 9.472656 "/></g></g></g><g fill="#0c1d36" fill-opacity="1"><g transform="translate(644.743807, 311.239806)"><g><path d="M 160.152344 9.039062 C 234.203125 9.039062 287.585938 -39.175781 298.347656 -116.671875 L 247.546875 -125.710938 C 239.796875 -71.464844 205.789062 -37.886719 160.152344 -37.886719 C 102.894531 -37.886719 67.589844 -81.367188 67.160156 -152.402344 C 67.160156 -223.4375 99.449219 -267.78125 151.113281 -267.78125 C 188.996094 -267.78125 216.550781 -239.796875 224.300781 -192.441406 L 274.242188 -203.203125 C 263.046875 -272.519531 216.121094 -314.277344 151.113281 -314.277344 C 66.300781 -314.277344 13.347656 -251.851562 13.347656 -152.402344 C 13.347656 -52.953125 69.742188 9.039062 160.152344 9.039062 Z M 160.152344 9.039062 "/></g></g></g><g fill="#0c1d36" fill-opacity="1"><g transform="translate(950.400589, 311.239806)"><g><path d="M 160.152344 9.039062 C 234.203125 9.039062 287.585938 -39.175781 298.347656 -116.671875 L 247.546875 -125.710938 C 239.796875 -71.464844 205.789062 -37.886719 160.152344 -37.886719 C 102.894531 -37.886719 67.589844 -81.367188 67.160156 -152.402344 C 67.160156 -223.4375 99.449219 -267.78125 151.113281 -267.78125 C 188.996094 -267.78125 216.550781 -239.796875 224.300781 -192.441406 L 274.242188 -203.203125 C 263.046875 -272.519531 216.121094 -314.277344 151.113281 -314.277344 C 66.300781 -314.277344 13.347656 -251.851562 13.347656 -152.402344 C 13.347656 -52.953125 69.742188 9.039062 160.152344 9.039062 Z M 160.152344 9.039062 "/></g></g></g><g clip-path="url(#0621bd19cc)"><g fill="#0c1d36" fill-opacity="1"><g transform="translate(1256.057371, 311.239806)"><g><path d="M 131.308594 9.472656 C 201.050781 9.472656 244.535156 -29.707031 244.535156 -85.671875 C 244.535156 -130.445312 218.273438 -157.140625 161.015625 -171.777344 L 118.390625 -183.832031 C 86.535156 -192.871094 73.1875 -205.789062 73.1875 -227.746094 C 73.1875 -252.714844 92.5625 -271.65625 122.699219 -271.65625 C 153.695312 -271.65625 175.652344 -249.269531 177.804688 -214.398438 L 226.882812 -225.160156 C 222.578125 -278.976562 181.679688 -314.277344 123.558594 -314.277344 C 59.84375 -314.277344 21.09375 -276.824219 21.09375 -223.007812 C 21.09375 -179.09375 45.203125 -153.265625 99.449219 -138.625 L 142.5 -126.574219 C 177.375 -116.238281 192.011719 -102.464844 192.011719 -80.507812 C 192.011719 -53.816406 169.625 -33.582031 133.03125 -33.582031 C 91.699219 -33.582031 60.703125 -61.5625 58.980469 -104.183594 L 8.179688 -95.144531 C 12.054688 -31.429688 61.132812 9.472656 131.308594 9.472656 Z M 131.308594 9.472656 "/></g></g></g></g><g clip-path="url(#2793fc68e9)"><path fill="#ffffff" d="M 392.898438 94.679688 L 1506.203125 94.679688 L 1506.203125 241.027344 L 392.898438 241.027344 Z M 392.898438 94.679688 " fill-opacity="1" fill-rule="nonzero"/></g><g clip-path="url(#639a9949f2)"><path stroke-linecap="butt" transform="matrix(0.000000000000000046, -0.749262, 0.74889, 0.000000000000000046, 354.096262, 333.161254)" fill="none" stroke-linejoin="miter" d="M 0.00146474 11.498035 L 440.794489 11.498035 " stroke="#0c1d36" stroke-width="23" stroke-opacity="1" stroke-miterlimit="4"/></g><g clip-path="url(#4ab2f5f6a9)"><path fill="#0c1d36" d="M 6.003906 245.34375 C 8.324219 245.601562 96.425781 245.601562 123.992188 245.601562 C 120.898438 237.875 120.128906 230.660156 119.613281 227.054688 C 119.355469 225.507812 119.097656 223.960938 118.839844 222.675781 C 117.035156 211.339844 114.71875 196.398438 125.023438 183 L 105.183594 175.789062 L 105.183594 168.058594 C 114.976562 158.269531 117.035156 143.84375 117.808594 137.917969 C 118.066406 136.375 118.324219 134.828125 118.582031 133.28125 C 120.128906 122.71875 122.1875 110.613281 113.171875 100.308594 C 105.699219 91.808594 96.683594 86.910156 85.863281 85.882812 C 84.320312 85.882812 78.136719 85.882812 76.847656 85.882812 C 66.027344 86.910156 56.753906 91.808594 49.285156 100.308594 C 40.265625 110.613281 42.328125 122.71875 43.875 133.28125 C 44.132812 134.828125 44.386719 136.375 44.644531 137.917969 C 45.933594 147.707031 48.769531 159.816406 57.269531 168.316406 L 57.269531 175.789062 L 25.582031 187.125 C 24.808594 187.382812 5.488281 193.820312 4.199219 209.277344 L 1.367188 239.675781 C 1.109375 242.511719 3.171875 245.085938 6.003906 245.34375 Z M 81.226562 245.34375 C 78.394531 245.34375 76.074219 243.027344 76.074219 240.191406 C 76.074219 237.359375 78.394531 235.039062 81.226562 235.039062 C 84.0625 235.039062 86.378906 237.359375 86.378906 240.191406 C 86.378906 243.027344 84.0625 245.34375 81.226562 245.34375 Z M 81.226562 229.886719 C 78.394531 229.886719 76.074219 227.570312 76.074219 224.734375 C 76.074219 221.902344 78.394531 219.582031 81.226562 219.582031 C 84.0625 219.582031 86.378906 221.902344 86.378906 224.734375 C 86.378906 227.570312 84.0625 229.886719 81.226562 229.886719 Z M 94.878906 185.835938 L 81.226562 200.777344 L 67.574219 185.835938 L 67.574219 175.015625 C 70.664062 176.304688 74.015625 177.335938 77.878906 177.847656 C 78.652344 177.847656 83.289062 178.105469 84.0625 177.847656 C 88.183594 177.335938 91.53125 176.304688 94.625 175.015625 L 94.625 185.835938 Z M 54.949219 136.632812 C 54.691406 135.085938 53.664062 128.644531 53.40625 127.101562 C 61.90625 129.675781 68.605469 126.84375 73.242188 123.492188 C 83.03125 132.765625 93.59375 135.085938 101.578125 135.085938 C 103.898438 135.085938 105.957031 134.828125 107.761719 134.570312 C 107.761719 135.34375 107.503906 136.117188 107.503906 136.632812 C 104.671875 156.46875 97.457031 166 82.773438 167.800781 C 82 167.800781 80.195312 167.800781 79.425781 167.800781 C 64.738281 165.742188 57.785156 156.46875 54.949219 136.632812 Z M 54.949219 136.632812 " fill-opacity="1" fill-rule="nonzero"/></g><g clip-path="url(#9dae7dcb72)"><path fill="#0c1d36" d="M 110.851562 274.710938 C 110.078125 274.96875 90.5 281.410156 89.214844 296.609375 L 86.378906 327.265625 C 86.121094 330.097656 88.183594 332.675781 91.015625 332.933594 C 93.851562 333.191406 238.628906 333.191406 241.464844 332.933594 C 244.296875 332.675781 246.359375 330.097656 246.101562 327.265625 L 243.265625 296.609375 C 241.976562 281.410156 222.65625 274.710938 221.882812 274.453125 L 190.199219 263.378906 L 190.199219 255.90625 C 198.699219 247.40625 201.53125 235.296875 202.820312 225.507812 C 203.078125 223.960938 203.335938 222.417969 203.59375 220.871094 C 205.398438 210.308594 207.199219 198.199219 198.183594 187.898438 C 190.714844 179.394531 181.4375 174.5 170.621094 173.46875 C 169.332031 173.210938 163.148438 173.210938 161.601562 173.46875 C 150.78125 174.5 141.765625 179.394531 134.296875 187.898438 C 125.28125 198.199219 127.339844 210.308594 128.886719 220.871094 C 129.144531 222.417969 129.402344 223.960938 129.660156 225.507812 C 130.429688 231.433594 132.492188 245.859375 142.28125 255.648438 L 142.28125 263.378906 Z M 166.238281 332.933594 C 163.40625 332.933594 161.085938 330.613281 161.085938 327.78125 C 161.085938 324.945312 163.40625 322.628906 166.238281 322.628906 C 169.074219 322.628906 171.390625 324.945312 171.390625 327.78125 C 171.390625 330.613281 169.074219 332.933594 166.238281 332.933594 Z M 166.238281 317.476562 C 163.40625 317.476562 161.085938 315.15625 161.085938 312.324219 C 161.085938 309.488281 163.40625 307.171875 166.238281 307.171875 C 169.074219 307.171875 171.390625 309.488281 171.390625 312.324219 C 171.390625 315.15625 169.074219 317.476562 166.238281 317.476562 Z M 179.894531 273.683594 L 166.238281 288.625 L 152.84375 273.683594 L 152.84375 262.863281 C 155.933594 264.148438 159.542969 265.179688 163.40625 265.695312 C 164.179688 265.695312 168.558594 265.695312 169.589844 265.695312 C 173.453125 265.179688 176.800781 264.148438 179.894531 262.863281 Z M 139.964844 224.21875 C 139.964844 223.445312 139.707031 222.933594 139.707031 222.160156 C 141.507812 222.417969 143.570312 222.675781 145.886719 222.675781 C 153.875 222.675781 164.4375 220.355469 174.226562 211.082031 C 178.605469 214.429688 185.5625 217.007812 194.0625 214.6875 C 193.804688 216.234375 192.773438 222.675781 192.515625 224.21875 C 189.683594 244.3125 182.726562 253.332031 168.042969 255.390625 C 167.269531 255.390625 165.46875 255.648438 164.695312 255.390625 C 150.011719 253.332031 142.539062 244.054688 139.964844 224.21875 Z M 139.964844 224.21875 " fill-opacity="1" fill-rule="nonzero"/></g><g clip-path="url(#51f0a7c4cd)"><path fill="#0c1d36" d="M 287.832031 137.917969 C 288.089844 136.375 288.347656 134.828125 288.605469 133.28125 C 290.152344 122.71875 292.214844 110.613281 283.195312 100.308594 C 275.726562 91.808594 266.453125 86.910156 255.632812 85.882812 C 254.34375 85.882812 248.160156 85.882812 246.617188 85.882812 C 235.796875 86.910156 226.777344 91.808594 219.308594 100.308594 C 210.292969 110.613281 212.351562 122.71875 213.898438 133.28125 C 214.15625 134.828125 214.414062 136.375 214.671875 137.917969 C 215.445312 143.84375 217.503906 158.269531 227.292969 168.058594 L 227.292969 175.789062 L 207.457031 183 C 217.761719 196.65625 215.445312 211.339844 213.640625 222.417969 C 213.382812 223.960938 213.125 225.507812 212.867188 227.054688 C 212.09375 232.464844 210.808594 238.902344 208.488281 245.601562 C 243.523438 245.601562 323.640625 245.859375 326.476562 245.601562 C 329.308594 245.34375 331.371094 242.769531 331.113281 239.933594 L 328.277344 209.277344 C 326.992188 194.078125 307.667969 187.382812 306.898438 187.125 L 275.210938 175.789062 L 275.210938 168.316406 C 283.453125 159.816406 286.546875 147.707031 287.832031 137.917969 Z M 251.253906 245.34375 C 248.417969 245.34375 246.101562 243.027344 246.101562 240.191406 C 246.101562 237.359375 248.417969 235.039062 251.253906 235.039062 C 254.085938 235.039062 256.40625 237.359375 256.40625 240.191406 C 256.40625 243.027344 254.085938 245.34375 251.253906 245.34375 Z M 251.253906 229.886719 C 248.417969 229.886719 246.101562 227.570312 246.101562 224.734375 C 246.101562 221.902344 248.417969 219.582031 251.253906 219.582031 C 254.085938 219.582031 256.40625 221.902344 256.40625 224.734375 C 256.40625 227.570312 254.085938 229.886719 251.253906 229.886719 Z M 264.90625 185.835938 L 251.253906 200.777344 L 237.855469 185.835938 L 237.855469 175.015625 C 240.949219 176.304688 244.554688 177.335938 248.417969 177.847656 C 249.191406 177.847656 253.570312 177.847656 254.601562 177.847656 C 258.464844 177.335938 261.816406 176.304688 264.90625 175.015625 Z M 253.054688 167.800781 C 252.28125 167.800781 250.480469 168.058594 249.707031 167.800781 C 235.023438 165.742188 227.550781 156.46875 224.976562 136.632812 C 224.976562 135.859375 224.71875 135.34375 224.71875 134.570312 C 226.519531 134.828125 228.582031 135.085938 230.902344 135.085938 C 238.886719 135.085938 249.449219 132.765625 259.238281 123.492188 C 263.617188 126.84375 270.574219 129.417969 279.074219 127.101562 C 278.816406 128.644531 277.785156 135.085938 277.527344 136.632812 C 274.695312 156.46875 267.738281 165.742188 253.054688 167.800781 Z M 253.054688 167.800781 " fill-opacity="1" fill-rule="nonzero"/></g><g clip-path="url(#4fbada0efe)"><path fill="#0c1d36" d="M 127.855469 139.207031 C 127.082031 144.617188 125.277344 157.753906 117.292969 169.089844 L 132.75 174.5 C 140.734375 167.800781 150.011719 163.9375 160.574219 162.90625 C 161.859375 162.90625 164.4375 162.652344 166.238281 162.652344 C 168.816406 162.652344 170.621094 162.652344 171.648438 162.90625 C 181.953125 163.9375 191.484375 167.800781 199.472656 174.5 L 214.929688 169.089844 C 206.941406 157.753906 205.140625 144.617188 204.367188 139.207031 C 204.109375 137.660156 203.851562 136.117188 203.59375 134.828125 C 202.046875 124.78125 199.988281 111.902344 207.199219 99.535156 L 190.199219 93.351562 L 190.199219 85.882812 C 198.699219 77.378906 201.53125 65.273438 202.820312 55.484375 C 203.078125 53.9375 203.335938 52.390625 203.59375 50.847656 C 205.140625 40.285156 207.199219 28.175781 198.183594 17.871094 C 190.714844 9.113281 181.4375 4.21875 170.621094 3.1875 C 169.332031 3.1875 163.148438 3.1875 161.601562 3.1875 C 150.78125 4.21875 141.765625 9.113281 134.296875 17.613281 C 125.277344 27.917969 127.339844 40.027344 128.886719 50.589844 C 129.144531 52.132812 129.402344 53.679688 129.660156 55.226562 C 130.429688 61.152344 132.492188 75.578125 142.28125 85.367188 L 142.28125 93.09375 L 125.023438 99.535156 C 132.234375 111.902344 130.175781 124.78125 128.628906 134.828125 C 128.371094 136.375 128.113281 137.660156 127.855469 139.207031 Z M 166.238281 162.90625 C 163.40625 162.90625 161.085938 160.589844 161.085938 157.753906 C 161.085938 154.921875 163.40625 152.601562 166.238281 152.601562 C 169.074219 152.601562 171.390625 154.921875 171.390625 157.753906 C 171.390625 160.589844 169.074219 162.90625 166.238281 162.90625 Z M 166.238281 147.453125 C 163.40625 147.453125 161.085938 145.132812 161.085938 142.300781 C 161.085938 139.464844 163.40625 137.148438 166.238281 137.148438 C 169.074219 137.148438 171.390625 139.464844 171.390625 142.300781 C 171.390625 145.132812 169.074219 147.453125 166.238281 147.453125 Z M 179.894531 103.398438 L 166.238281 118.339844 L 152.84375 103.398438 L 152.84375 92.578125 C 155.933594 93.867188 159.542969 94.898438 163.40625 95.414062 C 164.179688 95.414062 168.558594 95.414062 169.589844 95.414062 C 173.453125 94.898438 176.800781 93.867188 179.894531 92.578125 Z M 139.964844 53.9375 C 139.964844 53.164062 139.707031 52.648438 139.707031 51.875 C 141.507812 52.132812 143.570312 52.390625 145.886719 52.390625 C 153.875 52.390625 164.4375 50.074219 174.226562 40.800781 C 178.605469 44.148438 185.5625 46.722656 194.0625 44.40625 C 193.804688 45.953125 192.773438 52.390625 192.515625 53.9375 C 189.683594 74.03125 182.726562 83.046875 168.042969 85.109375 C 167.269531 85.109375 165.46875 85.367188 164.695312 85.109375 C 150.011719 83.304688 142.539062 74.03125 139.964844 53.9375 Z M 139.964844 53.9375 " fill-opacity="1" fill-rule="nonzero"/></g><g fill="#0c1d36" fill-opacity="1"><g transform="translate(415.409791, 151.324437)"><g><path d="M 17.875 0.578125 C 15.082031 0.578125 12.59375 0.234375 10.40625 -0.453125 C 8.226562 -1.140625 6.410156 -2.046875 4.953125 -3.171875 C 3.503906 -4.296875 2.394531 -5.53125 1.625 -6.875 L 6.015625 -12.21875 L 6.703125 -12.21875 C 7.910156 -10.414062 9.445312 -8.976562 11.3125 -7.90625 C 13.1875 -6.84375 15.375 -6.3125 17.875 -6.3125 C 20.007812 -6.3125 21.617188 -6.757812 22.703125 -7.65625 C 23.785156 -8.5625 24.328125 -9.804688 24.328125 -11.390625 C 24.328125 -12.347656 24.148438 -13.144531 23.796875 -13.78125 C 23.453125 -14.425781 22.875 -14.976562 22.0625 -15.4375 C 21.25 -15.90625 20.15625 -16.300781 18.78125 -16.625 L 13.59375 -17.8125 C 9.96875 -18.644531 7.269531 -20.019531 5.5 -21.9375 C 3.726562 -23.863281 2.84375 -26.359375 2.84375 -29.421875 C 2.84375 -31.703125 3.410156 -33.707031 4.546875 -35.4375 C 5.691406 -37.164062 7.351562 -38.507812 9.53125 -39.46875 C 11.707031 -40.425781 14.3125 -40.90625 17.34375 -40.90625 C 20.457031 -40.90625 23.117188 -40.492188 25.328125 -39.671875 C 27.546875 -38.859375 29.414062 -37.601562 30.9375 -35.90625 L 27 -30.5 L 26.3125 -30.5 C 25.175781 -31.695312 23.867188 -32.59375 22.390625 -33.1875 C 20.921875 -33.789062 19.238281 -34.09375 17.34375 -34.09375 C 15.15625 -34.09375 13.488281 -33.703125 12.34375 -32.921875 C 11.207031 -32.148438 10.640625 -31.085938 10.640625 -29.734375 C 10.640625 -28.460938 11.039062 -27.445312 11.84375 -26.6875 C 12.644531 -25.9375 14.03125 -25.351562 16 -24.9375 L 21.296875 -23.828125 C 25.210938 -23.003906 28.050781 -21.601562 29.8125 -19.625 C 31.582031 -17.644531 32.46875 -15.066406 32.46875 -11.890625 C 32.46875 -9.367188 31.921875 -7.175781 30.828125 -5.3125 C 29.742188 -3.445312 28.109375 -2 25.921875 -0.96875 C 23.734375 0.0625 21.050781 0.578125 17.875 0.578125 Z M 17.875 0.578125 "/></g></g></g><g fill="#0c1d36" fill-opacity="1"><g transform="translate(450.050371, 151.324437)"><g><path d="M 32.046875 10.046875 C 28.492188 10.046875 25.546875 9.1875 23.203125 7.46875 C 20.859375 5.757812 19.285156 3.378906 18.484375 0.328125 C 15.410156 -0.109375 12.726562 -1.148438 10.4375 -2.796875 C 8.144531 -4.441406 6.359375 -6.71875 5.078125 -9.625 C 3.804688 -12.53125 3.171875 -16.039062 3.171875 -20.15625 C 3.171875 -24.769531 3.96875 -28.625 5.5625 -31.71875 C 7.164062 -34.820312 9.378906 -37.128906 12.203125 -38.640625 C 15.023438 -40.148438 18.285156 -40.90625 21.984375 -40.90625 C 25.679688 -40.90625 28.9375 -40.15625 31.75 -38.65625 C 34.5625 -37.15625 36.757812 -34.847656 38.34375 -31.734375 C 39.9375 -28.628906 40.734375 -24.769531 40.734375 -20.15625 C 40.734375 -14.125 39.441406 -9.492188 36.859375 -6.265625 C 34.273438 -3.046875 30.648438 -1.039062 25.984375 -0.25 L 25.84375 0.296875 C 26.414062 1.273438 27.265625 2.023438 28.390625 2.546875 C 29.523438 3.078125 30.847656 3.34375 32.359375 3.34375 C 33.566406 3.34375 34.660156 3.1875 35.640625 2.875 L 36.1875 2.984375 L 37.3125 9.21875 C 36.726562 9.4375 35.9375 9.628906 34.9375 9.796875 C 33.945312 9.960938 32.984375 10.046875 32.046875 10.046875 Z M 21.984375 -6.34375 C 25.398438 -6.34375 28.007812 -7.441406 29.8125 -9.640625 C 31.613281 -11.835938 32.515625 -15.34375 32.515625 -20.15625 C 32.515625 -24.976562 31.613281 -28.488281 29.8125 -30.6875 C 28.007812 -32.894531 25.398438 -34 21.984375 -34 C 18.546875 -34 15.921875 -32.894531 14.109375 -30.6875 C 12.296875 -28.488281 11.390625 -24.976562 11.390625 -20.15625 C 11.390625 -15.34375 12.296875 -11.835938 14.109375 -9.640625 C 15.921875 -7.441406 18.546875 -6.34375 21.984375 -6.34375 Z M 21.984375 -6.34375 "/></g></g></g><g fill="#0c1d36" fill-opacity="1"><g transform="translate(493.985456, 151.324437)"><g><path d="M 21.375 0.578125 C 15.820312 0.578125 11.703125 -0.738281 9.015625 -3.375 C 6.328125 -6.019531 4.984375 -9.929688 4.984375 -15.109375 L 4.984375 -40.328125 L 12.796875 -40.328125 L 12.796875 -15.171875 C 12.796875 -12.222656 13.503906 -10.015625 14.921875 -8.546875 C 16.335938 -7.078125 18.488281 -6.34375 21.375 -6.34375 C 27.09375 -6.34375 29.953125 -9.285156 29.953125 -15.171875 L 29.953125 -40.328125 L 37.75 -40.328125 L 37.75 -15.109375 C 37.75 -9.929688 36.40625 -6.019531 33.71875 -3.375 C 31.039062 -0.738281 26.925781 0.578125 21.375 0.578125 Z M 21.375 0.578125 "/></g></g></g><g fill="#0c1d36" fill-opacity="1"><g transform="translate(536.734579, 151.324437)"><g><path d="M 38.6875 0 L 30.3125 0 L 27.28125 -9.296875 L 11.828125 -9.296875 L 8.796875 0 L 0.609375 0 L 14.53125 -40.328125 L 24.765625 -40.328125 Z M 19.171875 -31.90625 L 13.984375 -16 L 25.078125 -16 L 19.859375 -31.90625 Z M 19.171875 -31.90625 "/></g></g></g><g fill="#0c1d36" fill-opacity="1"><g transform="translate(576.036211, 151.324437)"><g><path d="M 19.75 -40.328125 C 26.289062 -40.328125 31.285156 -38.632812 34.734375 -35.25 C 38.179688 -31.863281 39.90625 -26.832031 39.90625 -20.15625 C 39.90625 -13.5 38.179688 -8.472656 34.734375 -5.078125 C 31.285156 -1.691406 26.289062 0 19.75 0 L 5.234375 0 L 5.234375 -40.328125 Z M 19.28125 -6.703125 C 23.4375 -6.703125 26.539062 -7.765625 28.59375 -9.890625 C 30.65625 -12.015625 31.6875 -15.4375 31.6875 -20.15625 C 31.6875 -24.882812 30.65625 -28.3125 28.59375 -30.4375 C 26.539062 -32.5625 23.4375 -33.625 19.28125 -33.625 L 13.21875 -33.625 L 13.21875 -6.703125 Z M 19.28125 -6.703125 "/></g></g></g><g fill="#0c1d36" fill-opacity="1"><g transform="translate(619.143892, 151.324437)"><g/></g></g><g fill="#0c1d36" fill-opacity="1"><g transform="translate(632.465088, 151.324437)"><g><path d="M 22.03125 0.578125 C 18.320312 0.578125 15.050781 -0.191406 12.21875 -1.734375 C 9.382812 -3.273438 7.164062 -5.59375 5.5625 -8.6875 C 3.96875 -11.789062 3.171875 -15.613281 3.171875 -20.15625 C 3.171875 -24.695312 3.96875 -28.515625 5.5625 -31.609375 C 7.164062 -34.710938 9.382812 -37.035156 12.21875 -38.578125 C 15.050781 -40.128906 18.320312 -40.90625 22.03125 -40.90625 C 25.914062 -40.90625 29.210938 -40.144531 31.921875 -38.625 C 34.640625 -37.101562 36.578125 -34.789062 37.734375 -31.6875 L 31.90625 -28.125 L 31.21875 -28.15625 C 30.351562 -30.25 29.179688 -31.75 27.703125 -32.65625 C 26.222656 -33.570312 24.332031 -34.03125 22.03125 -34.03125 C 18.6875 -34.03125 16.078125 -32.921875 14.203125 -30.703125 C 12.328125 -28.492188 11.390625 -24.976562 11.390625 -20.15625 C 11.390625 -15.363281 12.328125 -11.859375 14.203125 -9.640625 C 16.078125 -7.421875 18.6875 -6.3125 22.03125 -6.3125 C 27.269531 -6.3125 30.476562 -8.859375 31.65625 -13.953125 L 32.359375 -13.953125 L 38.21875 -10.890625 C 37.125 -7.066406 35.242188 -4.195312 32.578125 -2.28125 C 29.910156 -0.375 26.394531 0.578125 22.03125 0.578125 Z M 22.03125 0.578125 "/></g></g></g><g fill="#0c1d36" fill-opacity="1"><g transform="translate(672.014921, 151.324437)"><g><path d="M 21.984375 0.578125 C 18.285156 0.578125 15.023438 -0.171875 12.203125 -1.671875 C 9.378906 -3.179688 7.164062 -5.484375 5.5625 -8.578125 C 3.96875 -11.679688 3.171875 -15.539062 3.171875 -20.15625 C 3.171875 -24.769531 3.96875 -28.625 5.5625 -31.71875 C 7.164062 -34.820312 9.378906 -37.128906 12.203125 -38.640625 C 15.023438 -40.148438 18.285156 -40.90625 21.984375 -40.90625 C 25.679688 -40.90625 28.9375 -40.15625 31.75 -38.65625 C 34.5625 -37.15625 36.757812 -34.847656 38.34375 -31.734375 C 39.9375 -28.628906 40.734375 -24.769531 40.734375 -20.15625 C 40.734375 -15.539062 39.9375 -11.679688 38.34375 -8.578125 C 36.757812 -5.472656 34.5625 -3.171875 31.75 -1.671875 C 28.9375 -0.171875 25.679688 0.578125 21.984375 0.578125 Z M 21.984375 -6.34375 C 25.398438 -6.34375 28.007812 -7.441406 29.8125 -9.640625 C 31.613281 -11.835938 32.515625 -15.34375 32.515625 -20.15625 C 32.515625 -24.976562 31.613281 -28.488281 29.8125 -30.6875 C 28.007812 -32.894531 25.398438 -34 21.984375 -34 C 18.546875 -34 15.921875 -32.894531 14.109375 -30.6875 C 12.296875 -28.488281 11.390625 -24.976562 11.390625 -20.15625 C 11.390625 -15.34375 12.296875 -11.835938 14.109375 -9.640625 C 15.921875 -7.441406 18.546875 -6.34375 21.984375 -6.34375 Z M 21.984375 -6.34375 "/></g></g></g><g fill="#0c1d36" fill-opacity="1"><g transform="translate(715.950006, 151.324437)"><g><path d="M 12.96875 0 L 5.234375 0 L 5.234375 -40.328125 L 14.375 -40.328125 L 30.5625 -14.34375 L 31.28125 -14.453125 L 31.28125 -40.328125 L 38.9375 -40.328125 L 38.9375 0 L 30.78125 0 L 13.65625 -27.75 L 12.96875 -27.640625 Z M 12.96875 0 "/></g></g></g><g fill="#0c1d36" fill-opacity="1"><g transform="translate(760.160891, 151.324437)"><g><path d="M 32.328125 -40.328125 L 32.328125 -33.625 L 20.6875 -33.625 L 20.6875 0 L 12.734375 0 L 12.734375 -33.625 L 1.109375 -33.625 L 1.109375 -40.328125 Z M 32.328125 -40.328125 "/></g></g></g><g fill="#0c1d36" fill-opacity="1"><g transform="translate(793.587947, 151.324437)"><g><path d="M 38.6875 0 L 30.3125 0 L 27.28125 -9.296875 L 11.828125 -9.296875 L 8.796875 0 L 0.609375 0 L 14.53125 -40.328125 L 24.765625 -40.328125 Z M 19.171875 -31.90625 L 13.984375 -16 L 25.078125 -16 L 19.859375 -31.90625 Z M 19.171875 -31.90625 "/></g></g></g><g fill="#0c1d36" fill-opacity="1"><g transform="translate(832.889578, 151.324437)"><g><path d="M 22.03125 0.578125 C 18.320312 0.578125 15.050781 -0.191406 12.21875 -1.734375 C 9.382812 -3.273438 7.164062 -5.59375 5.5625 -8.6875 C 3.96875 -11.789062 3.171875 -15.613281 3.171875 -20.15625 C 3.171875 -24.695312 3.96875 -28.515625 5.5625 -31.609375 C 7.164062 -34.710938 9.382812 -37.035156 12.21875 -38.578125 C 15.050781 -40.128906 18.320312 -40.90625 22.03125 -40.90625 C 25.914062 -40.90625 29.210938 -40.144531 31.921875 -38.625 C 34.640625 -37.101562 36.578125 -34.789062 37.734375 -31.6875 L 31.90625 -28.125 L 31.21875 -28.15625 C 30.351562 -30.25 29.179688 -31.75 27.703125 -32.65625 C 26.222656 -33.570312 24.332031 -34.03125 22.03125 -34.03125 C 18.6875 -34.03125 16.078125 -32.921875 14.203125 -30.703125 C 12.328125 -28.492188 11.390625 -24.976562 11.390625 -20.15625 C 11.390625 -15.363281 12.328125 -11.859375 14.203125 -9.640625 C 16.078125 -7.421875 18.6875 -6.3125 22.03125 -6.3125 C 27.269531 -6.3125 30.476562 -8.859375 31.65625 -13.953125 L 32.359375 -13.953125 L 38.21875 -10.890625 C 37.125 -7.066406 35.242188 -4.195312 32.578125 -2.28125 C 29.910156 -0.375 26.394531 0.578125 22.03125 0.578125 Z M 22.03125 0.578125 "/></g></g></g><g fill="#0c1d36" fill-opacity="1"><g transform="translate(872.439412, 151.324437)"><g><path d="M 32.328125 -40.328125 L 32.328125 -33.625 L 20.6875 -33.625 L 20.6875 0 L 12.734375 0 L 12.734375 -33.625 L 1.109375 -33.625 L 1.109375 -40.328125 Z M 32.328125 -40.328125 "/></g></g></g><g fill="#0c1d36" fill-opacity="1"><g transform="translate(905.866468, 151.324437)"><g/></g></g><g fill="#0c1d36" fill-opacity="1"><g transform="translate(919.187664, 151.324437)"><g><path d="M 22.03125 0.578125 C 18.320312 0.578125 15.050781 -0.191406 12.21875 -1.734375 C 9.382812 -3.273438 7.164062 -5.59375 5.5625 -8.6875 C 3.96875 -11.789062 3.171875 -15.613281 3.171875 -20.15625 C 3.171875 -24.695312 3.96875 -28.515625 5.5625 -31.609375 C 7.164062 -34.710938 9.382812 -37.035156 12.21875 -38.578125 C 15.050781 -40.128906 18.320312 -40.90625 22.03125 -40.90625 C 25.914062 -40.90625 29.210938 -40.144531 31.921875 -38.625 C 34.640625 -37.101562 36.578125 -34.789062 37.734375 -31.6875 L 31.90625 -28.125 L 31.21875 -28.15625 C 30.351562 -30.25 29.179688 -31.75 27.703125 -32.65625 C 26.222656 -33.570312 24.332031 -34.03125 22.03125 -34.03125 C 18.6875 -34.03125 16.078125 -32.921875 14.203125 -30.703125 C 12.328125 -28.492188 11.390625 -24.976562 11.390625 -20.15625 C 11.390625 -15.363281 12.328125 -11.859375 14.203125 -9.640625 C 16.078125 -7.421875 18.6875 -6.3125 22.03125 -6.3125 C 27.269531 -6.3125 30.476562 -8.859375 31.65625 -13.953125 L 32.359375 -13.953125 L 38.21875 -10.890625 C 37.125 -7.066406 35.242188 -4.195312 32.578125 -2.28125 C 29.910156 -0.375 26.394531 0.578125 22.03125 0.578125 Z M 22.03125 0.578125 "/></g></g></g><g fill="#0c1d36" fill-opacity="1"><g transform="translate(958.737497, 151.324437)"><g><path d="M 13.21875 -17.703125 L 13.21875 -6.671875 L 32.46875 -6.671875 L 32.46875 0 L 5.234375 0 L 5.234375 -40.328125 L 32.015625 -40.328125 L 32.015625 -33.640625 L 13.21875 -33.640625 L 13.21875 -24.21875 L 29.65625 -24.21875 L 29.65625 -17.703125 Z M 13.21875 -17.703125 "/></g></g></g><g fill="#0c1d36" fill-opacity="1"><g transform="translate(993.405641, 151.324437)"><g><path d="M 12.96875 0 L 5.234375 0 L 5.234375 -40.328125 L 14.375 -40.328125 L 30.5625 -14.34375 L 31.28125 -14.453125 L 31.28125 -40.328125 L 38.9375 -40.328125 L 38.9375 0 L 30.78125 0 L 13.65625 -27.75 L 12.96875 -27.640625 Z M 12.96875 0 "/></g></g></g><g fill="#0c1d36" fill-opacity="1"><g transform="translate(1037.616525, 151.324437)"><g><path d="M 32.328125 -40.328125 L 32.328125 -33.625 L 20.6875 -33.625 L 20.6875 0 L 12.734375 0 L 12.734375 -33.625 L 1.109375 -33.625 L 1.109375 -40.328125 Z M 32.328125 -40.328125 "/></g></g></g><g fill="#0c1d36" fill-opacity="1"><g transform="translate(1071.043582, 151.324437)"><g><path d="M 13.21875 -17.703125 L 13.21875 -6.671875 L 32.46875 -6.671875 L 32.46875 0 L 5.234375 0 L 5.234375 -40.328125 L 32.015625 -40.328125 L 32.015625 -33.640625 L 13.21875 -33.640625 L 13.21875 -24.21875 L 29.65625 -24.21875 L 29.65625 -17.703125 Z M 13.21875 -17.703125 "/></g></g></g><g fill="#0c1d36" fill-opacity="1"><g transform="translate(1105.711725, 151.324437)"><g><path d="M 5.234375 0 L 5.234375 -40.328125 L 21.4375 -40.328125 C 25.601562 -40.328125 28.75 -39.363281 30.875 -37.4375 C 33 -35.519531 34.0625 -32.867188 34.0625 -29.484375 C 34.0625 -27.035156 33.441406 -25.03125 32.203125 -23.46875 C 30.960938 -21.90625 29.109375 -20.710938 26.640625 -19.890625 L 26.640625 -19.3125 C 27.910156 -18.757812 28.9375 -17.9375 29.71875 -16.84375 C 30.5 -15.757812 31.238281 -14.15625 31.9375 -12.03125 L 35.96875 0 L 27.765625 0 L 23.828125 -12.046875 C 23.421875 -13.265625 22.960938 -14.207031 22.453125 -14.875 C 21.953125 -15.550781 21.3125 -16.039062 20.53125 -16.34375 C 19.75 -16.644531 18.734375 -16.796875 17.484375 -16.796875 L 13.21875 -16.796875 L 13.21875 0 Z M 20.46875 -23.109375 C 24.320312 -23.109375 26.25 -24.910156 26.25 -28.515625 C 26.25 -32.171875 24.320312 -34 20.46875 -34 L 13.21875 -34 L 13.21875 -23.109375 Z M 20.46875 -23.109375 "/></g></g></g><g fill="#0c1d36" fill-opacity="1"><g transform="translate(1143.41371, 151.324437)"><g/></g></g><g fill="#0c1d36" fill-opacity="1"><g transform="translate(1156.734906, 151.324437)"><g><path d="M 17.875 0.578125 C 15.082031 0.578125 12.59375 0.234375 10.40625 -0.453125 C 8.226562 -1.140625 6.410156 -2.046875 4.953125 -3.171875 C 3.503906 -4.296875 2.394531 -5.53125 1.625 -6.875 L 6.015625 -12.21875 L 6.703125 -12.21875 C 7.910156 -10.414062 9.445312 -8.976562 11.3125 -7.90625 C 13.1875 -6.84375 15.375 -6.3125 17.875 -6.3125 C 20.007812 -6.3125 21.617188 -6.757812 22.703125 -7.65625 C 23.785156 -8.5625 24.328125 -9.804688 24.328125 -11.390625 C 24.328125 -12.347656 24.148438 -13.144531 23.796875 -13.78125 C 23.453125 -14.425781 22.875 -14.976562 22.0625 -15.4375 C 21.25 -15.90625 20.15625 -16.300781 18.78125 -16.625 L 13.59375 -17.8125 C 9.96875 -18.644531 7.269531 -20.019531 5.5 -21.9375 C 3.726562 -23.863281 2.84375 -26.359375 2.84375 -29.421875 C 2.84375 -31.703125 3.410156 -33.707031 4.546875 -35.4375 C 5.691406 -37.164062 7.351562 -38.507812 9.53125 -39.46875 C 11.707031 -40.425781 14.3125 -40.90625 17.34375 -40.90625 C 20.457031 -40.90625 23.117188 -40.492188 25.328125 -39.671875 C 27.546875 -38.859375 29.414062 -37.601562 30.9375 -35.90625 L 27 -30.5 L 26.3125 -30.5 C 25.175781 -31.695312 23.867188 -32.59375 22.390625 -33.1875 C 20.921875 -33.789062 19.238281 -34.09375 17.34375 -34.09375 C 15.15625 -34.09375 13.488281 -33.703125 12.34375 -32.921875 C 11.207031 -32.148438 10.640625 -31.085938 10.640625 -29.734375 C 10.640625 -28.460938 11.039062 -27.445312 11.84375 -26.6875 C 12.644531 -25.9375 14.03125 -25.351562 16 -24.9375 L 21.296875 -23.828125 C 25.210938 -23.003906 28.050781 -21.601562 29.8125 -19.625 C 31.582031 -17.644531 32.46875 -15.066406 32.46875 -11.890625 C 32.46875 -9.367188 31.921875 -7.175781 30.828125 -5.3125 C 29.742188 -3.445312 28.109375 -2 25.921875 -0.96875 C 23.734375 0.0625 21.050781 0.578125 17.875 0.578125 Z M 17.875 0.578125 "/></g></g></g><g fill="#0c1d36" fill-opacity="1"><g transform="translate(1191.375486, 151.324437)"><g><path d="M 21.984375 0.578125 C 18.285156 0.578125 15.023438 -0.171875 12.203125 -1.671875 C 9.378906 -3.179688 7.164062 -5.484375 5.5625 -8.578125 C 3.96875 -11.679688 3.171875 -15.539062 3.171875 -20.15625 C 3.171875 -24.769531 3.96875 -28.625 5.5625 -31.71875 C 7.164062 -34.820312 9.378906 -37.128906 12.203125 -38.640625 C 15.023438 -40.148438 18.285156 -40.90625 21.984375 -40.90625 C 25.679688 -40.90625 28.9375 -40.15625 31.75 -38.65625 C 34.5625 -37.15625 36.757812 -34.847656 38.34375 -31.734375 C 39.9375 -28.628906 40.734375 -24.769531 40.734375 -20.15625 C 40.734375 -15.539062 39.9375 -11.679688 38.34375 -8.578125 C 36.757812 -5.472656 34.5625 -3.171875 31.75 -1.671875 C 28.9375 -0.171875 25.679688 0.578125 21.984375 0.578125 Z M 21.984375 -6.34375 C 25.398438 -6.34375 28.007812 -7.441406 29.8125 -9.640625 C 31.613281 -11.835938 32.515625 -15.34375 32.515625 -20.15625 C 32.515625 -24.976562 31.613281 -28.488281 29.8125 -30.6875 C 28.007812 -32.894531 25.398438 -34 21.984375 -34 C 18.546875 -34 15.921875 -32.894531 14.109375 -30.6875 C 12.296875 -28.488281 11.390625 -24.976562 11.390625 -20.15625 C 11.390625 -15.34375 12.296875 -11.835938 14.109375 -9.640625 C 15.921875 -7.441406 18.546875 -6.34375 21.984375 -6.34375 Z M 21.984375 -6.34375 "/></g></g></g><g fill="#0c1d36" fill-opacity="1"><g transform="translate(1235.310535, 151.324437)"><g><path d="M 13.21875 -40.328125 L 13.21875 -6.671875 L 31.328125 -6.671875 L 31.328125 0 L 5.234375 0 L 5.234375 -40.328125 Z M 13.21875 -40.328125 "/></g></g></g><g fill="#0c1d36" fill-opacity="1"><g transform="translate(1267.96535, 151.324437)"><g><path d="M 21.375 0.578125 C 15.820312 0.578125 11.703125 -0.738281 9.015625 -3.375 C 6.328125 -6.019531 4.984375 -9.929688 4.984375 -15.109375 L 4.984375 -40.328125 L 12.796875 -40.328125 L 12.796875 -15.171875 C 12.796875 -12.222656 13.503906 -10.015625 14.921875 -8.546875 C 16.335938 -7.078125 18.488281 -6.34375 21.375 -6.34375 C 27.09375 -6.34375 29.953125 -9.285156 29.953125 -15.171875 L 29.953125 -40.328125 L 37.75 -40.328125 L 37.75 -15.109375 C 37.75 -9.929688 36.40625 -6.019531 33.71875 -3.375 C 31.039062 -0.738281 26.925781 0.578125 21.375 0.578125 Z M 21.375 0.578125 "/></g></g></g><g fill="#0c1d36" fill-opacity="1"><g transform="translate(1310.714506, 151.324437)"><g><path d="M 32.328125 -40.328125 L 32.328125 -33.625 L 20.6875 -33.625 L 20.6875 0 L 12.734375 0 L 12.734375 -33.625 L 1.109375 -33.625 L 1.109375 -40.328125 Z M 32.328125 -40.328125 "/></g></g></g><g fill="#0c1d36" fill-opacity="1"><g transform="translate(1344.141563, 151.324437)"><g><path d="M 13.21875 0 L 5.234375 0 L 5.234375 -40.328125 L 13.21875 -40.328125 Z M 13.21875 0 "/></g></g></g><g fill="#0c1d36" fill-opacity="1"><g transform="translate(1362.620182, 151.324437)"><g><path d="M 21.984375 0.578125 C 18.285156 0.578125 15.023438 -0.171875 12.203125 -1.671875 C 9.378906 -3.179688 7.164062 -5.484375 5.5625 -8.578125 C 3.96875 -11.679688 3.171875 -15.539062 3.171875 -20.15625 C 3.171875 -24.769531 3.96875 -28.625 5.5625 -31.71875 C 7.164062 -34.820312 9.378906 -37.128906 12.203125 -38.640625 C 15.023438 -40.148438 18.285156 -40.90625 21.984375 -40.90625 C 25.679688 -40.90625 28.9375 -40.15625 31.75 -38.65625 C 34.5625 -37.15625 36.757812 -34.847656 38.34375 -31.734375 C 39.9375 -28.628906 40.734375 -24.769531 40.734375 -20.15625 C 40.734375 -15.539062 39.9375 -11.679688 38.34375 -8.578125 C 36.757812 -5.472656 34.5625 -3.171875 31.75 -1.671875 C 28.9375 -0.171875 25.679688 0.578125 21.984375 0.578125 Z M 21.984375 -6.34375 C 25.398438 -6.34375 28.007812 -7.441406 29.8125 -9.640625 C 31.613281 -11.835938 32.515625 -15.34375 32.515625 -20.15625 C 32.515625 -24.976562 31.613281 -28.488281 29.8125 -30.6875 C 28.007812 -32.894531 25.398438 -34 21.984375 -34 C 18.546875 -34 15.921875 -32.894531 14.109375 -30.6875 C 12.296875 -28.488281 11.390625 -24.976562 11.390625 -20.15625 C 11.390625 -15.34375 12.296875 -11.835938 14.109375 -9.640625 C 15.921875 -7.441406 18.546875 -6.34375 21.984375 -6.34375 Z M 21.984375 -6.34375 "/></g></g></g><g fill="#0c1d36" fill-opacity="1"><g transform="translate(1406.555301, 151.324437)"><g><path d="M 12.96875 0 L 5.234375 0 L 5.234375 -40.328125 L 14.375 -40.328125 L 30.5625 -14.34375 L 31.28125 -14.453125 L 31.28125 -40.328125 L 38.9375 -40.328125 L 38.9375 0 L 30.78125 0 L 13.65625 -27.75 L 12.96875 -27.640625 Z M 12.96875 0 "/></g></g></g><g fill="#0c1d36" fill-opacity="1"><g transform="translate(1450.766186, 151.324437)"><g><path d="M 17.875 0.578125 C 15.082031 0.578125 12.59375 0.234375 10.40625 -0.453125 C 8.226562 -1.140625 6.410156 -2.046875 4.953125 -3.171875 C 3.503906 -4.296875 2.394531 -5.53125 1.625 -6.875 L 6.015625 -12.21875 L 6.703125 -12.21875 C 7.910156 -10.414062 9.445312 -8.976562 11.3125 -7.90625 C 13.1875 -6.84375 15.375 -6.3125 17.875 -6.3125 C 20.007812 -6.3125 21.617188 -6.757812 22.703125 -7.65625 C 23.785156 -8.5625 24.328125 -9.804688 24.328125 -11.390625 C 24.328125 -12.347656 24.148438 -13.144531 23.796875 -13.78125 C 23.453125 -14.425781 22.875 -14.976562 22.0625 -15.4375 C 21.25 -15.90625 20.15625 -16.300781 18.78125 -16.625 L 13.59375 -17.8125 C 9.96875 -18.644531 7.269531 -20.019531 5.5 -21.9375 C 3.726562 -23.863281 2.84375 -26.359375 2.84375 -29.421875 C 2.84375 -31.703125 3.410156 -33.707031 4.546875 -35.4375 C 5.691406 -37.164062 7.351562 -38.507812 9.53125 -39.46875 C 11.707031 -40.425781 14.3125 -40.90625 17.34375 -40.90625 C 20.457031 -40.90625 23.117188 -40.492188 25.328125 -39.671875 C 27.546875 -38.859375 29.414062 -37.601562 30.9375 -35.90625 L 27 -30.5 L 26.3125 -30.5 C 25.175781 -31.695312 23.867188 -32.59375 22.390625 -33.1875 C 20.921875 -33.789062 19.238281 -34.09375 17.34375 -34.09375 C 15.15625 -34.09375 13.488281 -33.703125 12.34375 -32.921875 C 11.207031 -32.148438 10.640625 -31.085938 10.640625 -29.734375 C 10.640625 -28.460938 11.039062 -27.445312 11.84375 -26.6875 C 12.644531 -25.9375 14.03125 -25.351562 16 -24.9375 L 21.296875 -23.828125 C 25.210938 -23.003906 28.050781 -21.601562 29.8125 -19.625 C 31.582031 -17.644531 32.46875 -15.066406 32.46875 -11.890625 C 32.46875 -9.367188 31.921875 -7.175781 30.828125 -5.3125 C 29.742188 -3.445312 28.109375 -2 25.921875 -0.96875 C 23.734375 0.0625 21.050781 0.578125 17.875 0.578125 Z M 17.875 0.578125 "/></g></g></g><g fill="#0c1d36" fill-opacity="1"><g transform="translate(482.340421, 215.302071)"><g><path d="M 9.125 -16 L 9.125 -3.296875 L 26.421875 -3.296875 L 26.421875 0 L 5.125 0 L 5.125 -33.953125 L 26.0625 -33.953125 L 26.0625 -30.65625 L 9.125 -30.65625 L 9.125 -19.296875 L 24.0625 -19.296875 L 24.0625 -16 Z M 9.125 -16 "/></g></g></g><g fill="#0c1d36" fill-opacity="1"><g transform="translate(511.022615, 215.302071)"><g><path d="M 5.34375 0 L 1.15625 0 L 9.078125 -13.28125 L 1.5625 -25.609375 L 5.828125 -25.609375 L 11.75 -15.765625 L 12.28125 -15.765625 L 18.234375 -25.609375 L 22.3125 -25.609375 L 14.984375 -13.28125 L 22.71875 0 L 18.4375 0 L 12.125 -10.828125 L 11.59375 -10.828125 Z M 5.34375 0 "/></g></g></g><g fill="#0c1d36" fill-opacity="1"><g transform="translate(534.897334, 215.302071)"><g><path d="M 14.703125 0.484375 C 12.441406 0.484375 10.410156 -0.0234375 8.609375 -1.046875 C 6.816406 -2.078125 5.398438 -3.59375 4.359375 -5.59375 C 3.328125 -7.601562 2.8125 -10.003906 2.8125 -12.796875 C 2.8125 -15.597656 3.328125 -18 4.359375 -20 C 5.398438 -22.007812 6.816406 -23.53125 8.609375 -24.5625 C 10.410156 -25.59375 12.441406 -26.109375 14.703125 -26.109375 C 17.410156 -26.109375 19.566406 -25.59375 21.171875 -24.5625 C 22.773438 -23.539062 23.929688 -22.179688 24.640625 -20.484375 L 22.0625 -18.625 L 21.59375 -18.625 C 20.894531 -20.03125 20 -21.0625 18.90625 -21.71875 C 17.820312 -22.382812 16.421875 -22.71875 14.703125 -22.71875 C 13.117188 -22.71875 11.726562 -22.34375 10.53125 -21.59375 C 9.34375 -20.851562 8.421875 -19.738281 7.765625 -18.25 C 7.109375 -16.769531 6.78125 -14.953125 6.78125 -12.796875 C 6.78125 -10.660156 7.113281 -8.851562 7.78125 -7.375 C 8.445312 -5.894531 9.367188 -4.78125 10.546875 -4.03125 C 11.734375 -3.28125 13.117188 -2.90625 14.703125 -2.90625 C 16.484375 -2.90625 17.957031 -3.304688 19.125 -4.109375 C 20.289062 -4.910156 21.207031 -6.179688 21.875 -7.921875 L 22.359375 -7.921875 L 24.84375 -6.453125 C 24.175781 -4.304688 22.988281 -2.613281 21.28125 -1.375 C 19.570312 -0.132812 17.378906 0.484375 14.703125 0.484375 Z M 14.703125 0.484375 "/></g></g></g><g fill="#0c1d36" fill-opacity="1"><g transform="translate(561.303533, 215.302071)"><g><path d="M 24.40625 -11.9375 L 6.796875 -11.9375 C 6.910156 -8.820312 7.660156 -6.535156 9.046875 -5.078125 C 10.429688 -3.628906 12.332031 -2.90625 14.75 -2.90625 C 16.570312 -2.90625 18.039062 -3.226562 19.15625 -3.875 C 20.269531 -4.53125 21.144531 -5.550781 21.78125 -6.9375 L 22.265625 -6.9375 L 24.734375 -5.484375 C 23.992188 -3.617188 22.804688 -2.15625 21.171875 -1.09375 C 19.535156 -0.0390625 17.394531 0.484375 14.75 0.484375 C 12.269531 0.484375 10.140625 0 8.359375 -0.96875 C 6.578125 -1.945312 5.207031 -3.425781 4.25 -5.40625 C 3.289062 -7.394531 2.8125 -9.859375 2.8125 -12.796875 C 2.8125 -15.703125 3.316406 -18.15625 4.328125 -20.15625 C 5.347656 -22.15625 6.734375 -23.644531 8.484375 -24.625 C 10.242188 -25.613281 12.253906 -26.109375 14.515625 -26.109375 C 17.796875 -26.109375 20.359375 -25.179688 22.203125 -23.328125 C 24.046875 -21.472656 24.972656 -18.726562 24.984375 -15.09375 C 24.984375 -13.664062 24.953125 -12.707031 24.890625 -12.21875 Z M 21.25 -15.09375 C 21.1875 -17.820312 20.582031 -19.804688 19.4375 -21.046875 C 18.289062 -22.285156 16.648438 -22.90625 14.515625 -22.90625 C 12.265625 -22.90625 10.5 -22.28125 9.21875 -21.03125 C 7.945312 -19.78125 7.171875 -17.800781 6.890625 -15.09375 Z M 21.25 -15.09375 "/></g></g></g><g fill="#0c1d36" fill-opacity="1"><g transform="translate(588.615468, 215.302071)"><g><path d="M 24.40625 -11.9375 L 6.796875 -11.9375 C 6.910156 -8.820312 7.660156 -6.535156 9.046875 -5.078125 C 10.429688 -3.628906 12.332031 -2.90625 14.75 -2.90625 C 16.570312 -2.90625 18.039062 -3.226562 19.15625 -3.875 C 20.269531 -4.53125 21.144531 -5.550781 21.78125 -6.9375 L 22.265625 -6.9375 L 24.734375 -5.484375 C 23.992188 -3.617188 22.804688 -2.15625 21.171875 -1.09375 C 19.535156 -0.0390625 17.394531 0.484375 14.75 0.484375 C 12.269531 0.484375 10.140625 0 8.359375 -0.96875 C 6.578125 -1.945312 5.207031 -3.425781 4.25 -5.40625 C 3.289062 -7.394531 2.8125 -9.859375 2.8125 -12.796875 C 2.8125 -15.703125 3.316406 -18.15625 4.328125 -20.15625 C 5.347656 -22.15625 6.734375 -23.644531 8.484375 -24.625 C 10.242188 -25.613281 12.253906 -26.109375 14.515625 -26.109375 C 17.796875 -26.109375 20.359375 -25.179688 22.203125 -23.328125 C 24.046875 -21.472656 24.972656 -18.726562 24.984375 -15.09375 C 24.984375 -13.664062 24.953125 -12.707031 24.890625 -12.21875 Z M 21.25 -15.09375 C 21.1875 -17.820312 20.582031 -19.804688 19.4375 -21.046875 C 18.289062 -22.285156 16.648438 -22.90625 14.515625 -22.90625 C 12.265625 -22.90625 10.5 -22.28125 9.21875 -21.03125 C 7.945312 -19.78125 7.171875 -17.800781 6.890625 -15.09375 Z M 21.25 -15.09375 "/></g></g></g><g fill="#0c1d36" fill-opacity="1"><g transform="translate(615.927404, 215.302071)"><g><path d="M 13.28125 0.484375 C 11.21875 0.484375 9.398438 -0.00390625 7.828125 -0.984375 C 6.265625 -1.972656 5.035156 -3.457031 4.140625 -5.4375 C 3.253906 -7.414062 2.8125 -9.867188 2.8125 -12.796875 C 2.8125 -15.722656 3.273438 -18.179688 4.203125 -20.171875 C 5.128906 -22.160156 6.410156 -23.644531 8.046875 -24.625 C 9.679688 -25.613281 11.570312 -26.109375 13.71875 -26.109375 C 15.425781 -26.109375 16.960938 -25.785156 18.328125 -25.140625 C 19.691406 -24.492188 20.859375 -23.4375 21.828125 -21.96875 L 22.3125 -22.0625 L 22.3125 -35.90625 L 26.109375 -35.90625 L 26.109375 0 L 22.3125 0 L 22.3125 -3.734375 L 21.828125 -3.828125 C 20.992188 -2.554688 19.859375 -1.519531 18.421875 -0.71875 C 16.992188 0.0820312 15.28125 0.484375 13.28125 0.484375 Z M 14.46875 -2.90625 C 16.851562 -2.90625 18.753906 -3.71875 20.171875 -5.34375 C 21.597656 -6.976562 22.3125 -9.460938 22.3125 -12.796875 C 22.3125 -16.140625 21.597656 -18.628906 20.171875 -20.265625 C 18.753906 -21.898438 16.851562 -22.71875 14.46875 -22.71875 C 12.007812 -22.71875 10.113281 -21.914062 8.78125 -20.3125 C 7.445312 -18.71875 6.78125 -16.210938 6.78125 -12.796875 C 6.78125 -6.203125 9.34375 -2.90625 14.46875 -2.90625 Z M 14.46875 -2.90625 "/></g></g></g><g fill="#0c1d36" fill-opacity="1"><g transform="translate(646.514001, 215.302071)"><g><path d="M 6.359375 -30.5625 C 5.554688 -30.5625 4.898438 -30.8125 4.390625 -31.3125 C 3.890625 -31.820312 3.640625 -32.460938 3.640625 -33.234375 C 3.640625 -34.003906 3.890625 -34.640625 4.390625 -35.140625 C 4.898438 -35.648438 5.554688 -35.90625 6.359375 -35.90625 C 7.171875 -35.90625 7.828125 -35.648438 8.328125 -35.140625 C 8.828125 -34.640625 9.078125 -34.003906 9.078125 -33.234375 C 9.078125 -32.460938 8.828125 -31.820312 8.328125 -31.3125 C 7.828125 -30.8125 7.171875 -30.5625 6.359375 -30.5625 Z M 4.453125 0 L 4.453125 -25.609375 L 8.25 -25.609375 L 8.25 0 Z M 4.453125 0 "/></g></g></g><g fill="#0c1d36" fill-opacity="1"><g transform="translate(659.217784, 215.302071)"><g><path d="M 4.453125 0 L 4.453125 -25.609375 L 8.0625 -25.609375 L 8.0625 -21.59375 L 8.546875 -21.484375 C 9.398438 -22.984375 10.488281 -24.128906 11.8125 -24.921875 C 13.132812 -25.710938 14.75 -26.109375 16.65625 -26.109375 C 19.726562 -26.109375 21.957031 -25.320312 23.34375 -23.75 C 24.738281 -22.175781 25.4375 -19.753906 25.4375 -16.484375 L 25.4375 0 L 21.640625 0 L 21.640625 -16.390625 C 21.640625 -17.941406 21.441406 -19.1875 21.046875 -20.125 C 20.648438 -21.0625 20.035156 -21.742188 19.203125 -22.171875 C 18.378906 -22.597656 17.296875 -22.8125 15.953125 -22.8125 C 13.648438 -22.8125 11.789062 -22.046875 10.375 -20.515625 C 8.957031 -18.992188 8.25 -16.535156 8.25 -13.140625 L 8.25 0 Z M 4.453125 0 "/></g></g></g><g fill="#0c1d36" fill-opacity="1"><g transform="translate(688.712816, 215.302071)"><g><path d="M 13.1875 10.875 C 9.144531 10.875 6.195312 10.195312 4.34375 8.84375 C 2.488281 7.5 1.5625 5.710938 1.5625 3.484375 C 1.5625 2.046875 1.992188 0.898438 2.859375 0.046875 C 3.722656 -0.804688 4.984375 -1.414062 6.640625 -1.78125 L 6.640625 -2.28125 C 5.847656 -2.726562 5.253906 -3.253906 4.859375 -3.859375 C 4.460938 -4.460938 4.265625 -5.179688 4.265625 -6.015625 C 4.265625 -7.003906 4.578125 -7.804688 5.203125 -8.421875 C 5.835938 -9.046875 6.773438 -9.519531 8.015625 -9.84375 L 8.015625 -10.328125 C 5.222656 -11.804688 3.828125 -14.203125 3.828125 -17.515625 C 3.828125 -19.179688 4.207031 -20.664062 4.96875 -21.96875 C 5.726562 -23.269531 6.8125 -24.285156 8.21875 -25.015625 C 9.625 -25.742188 11.265625 -26.109375 13.140625 -26.109375 C 15.296875 -26.109375 17.09375 -25.632812 18.53125 -24.6875 C 19.070312 -25.289062 19.476562 -25.9375 19.75 -26.625 C 20.019531 -27.3125 20.195312 -28.085938 20.28125 -28.953125 L 20.765625 -29.265625 L 23.875 -28.515625 C 23.71875 -27.210938 23.328125 -26.113281 22.703125 -25.21875 C 22.078125 -24.320312 21.191406 -23.578125 20.046875 -22.984375 L 20.046875 -22.5 C 20.859375 -21.851562 21.460938 -21.09375 21.859375 -20.21875 C 22.253906 -19.34375 22.453125 -18.320312 22.453125 -17.15625 C 22.453125 -15.550781 22.066406 -14.101562 21.296875 -12.8125 C 20.523438 -11.53125 19.429688 -10.519531 18.015625 -9.78125 C 16.609375 -9.050781 14.984375 -8.6875 13.140625 -8.6875 C 12.921875 -8.6875 12.535156 -8.703125 11.984375 -8.734375 C 11.359375 -8.765625 10.898438 -8.78125 10.609375 -8.78125 C 9.804688 -8.78125 9.164062 -8.570312 8.6875 -8.15625 C 8.207031 -7.738281 7.96875 -7.203125 7.96875 -6.546875 C 7.96875 -5.742188 8.222656 -5.148438 8.734375 -4.765625 C 9.253906 -4.390625 10.113281 -4.179688 11.3125 -4.140625 L 17.375 -3.921875 C 19.988281 -3.828125 21.925781 -3.21875 23.1875 -2.09375 C 24.445312 -0.976562 25.078125 0.609375 25.078125 2.671875 C 25.078125 4.203125 24.664062 5.582031 23.84375 6.8125 C 23.03125 8.039062 21.734375 9.023438 19.953125 9.765625 C 18.171875 10.503906 15.914062 10.875 13.1875 10.875 Z M 13.140625 -11.9375 C 14.953125 -11.9375 16.351562 -12.40625 17.34375 -13.34375 C 18.332031 -14.289062 18.828125 -15.617188 18.828125 -17.328125 C 18.828125 -19.085938 18.335938 -20.445312 17.359375 -21.40625 C 16.378906 -22.375 14.972656 -22.859375 13.140625 -22.859375 C 11.316406 -22.859375 9.925781 -22.378906 8.96875 -21.421875 C 8.007812 -20.472656 7.53125 -19.109375 7.53125 -17.328125 C 7.53125 -15.609375 8.007812 -14.28125 8.96875 -13.34375 C 9.925781 -12.40625 11.316406 -11.9375 13.140625 -11.9375 Z M 13.1875 7.625 C 15.082031 7.625 16.628906 7.410156 17.828125 6.984375 C 19.023438 6.566406 19.882812 6.015625 20.40625 5.328125 C 20.9375 4.640625 21.203125 3.867188 21.203125 3.015625 C 21.203125 2.253906 21.054688 1.640625 20.765625 1.171875 C 20.484375 0.710938 20.023438 0.367188 19.390625 0.140625 C 18.753906 -0.0859375 17.890625 -0.234375 16.796875 -0.296875 L 11.046875 -0.578125 L 10.234375 -0.578125 C 7.035156 -0.535156 5.4375 0.707031 5.4375 3.15625 C 5.4375 6.132812 8.019531 7.625 13.1875 7.625 Z M 13.1875 7.625 "/></g></g></g><g fill="#0c1d36" fill-opacity="1"><g transform="translate(714.956428, 215.302071)"><g/></g></g><g fill="#0c1d36" fill-opacity="1"><g transform="translate(726.615094, 215.302071)"><g><path d="M 5.125 10.875 C 4.257812 10.875 3.453125 10.796875 2.703125 10.640625 C 1.953125 10.492188 1.304688 10.289062 0.765625 10.03125 L 1.46875 7.03125 L 1.875 6.890625 C 2.25 7.078125 2.710938 7.238281 3.265625 7.375 C 3.828125 7.507812 4.40625 7.578125 5 7.578125 C 6.03125 7.578125 6.882812 7.4375 7.5625 7.15625 C 8.25 6.875 8.835938 6.410156 9.328125 5.765625 C 9.816406 5.128906 10.269531 4.242188 10.6875 3.109375 L 11.59375 0.609375 L 1.296875 -25.609375 L 5.390625 -25.609375 L 13.453125 -4.71875 L 13.890625 -4.71875 L 21.6875 -25.609375 L 25.5625 -25.609375 L 14.125 4.015625 C 13.46875 5.660156 12.738281 6.976562 11.9375 7.96875 C 11.132812 8.96875 10.179688 9.703125 9.078125 10.171875 C 7.984375 10.640625 6.664062 10.875 5.125 10.875 Z M 5.125 10.875 "/></g></g></g><g fill="#0c1d36" fill-opacity="1"><g transform="translate(753.625129, 215.302071)"><g><path d="M 14.703125 0.484375 C 12.285156 0.484375 10.179688 -0.0234375 8.390625 -1.046875 C 6.609375 -2.066406 5.234375 -3.570312 4.265625 -5.5625 C 3.296875 -7.550781 2.8125 -9.960938 2.8125 -12.796875 C 2.8125 -15.628906 3.296875 -18.039062 4.265625 -20.03125 C 5.234375 -22.03125 6.609375 -23.539062 8.390625 -24.5625 C 10.179688 -25.59375 12.285156 -26.109375 14.703125 -26.109375 C 17.117188 -26.109375 19.21875 -25.59375 21 -24.5625 C 22.789062 -23.539062 24.171875 -22.03125 25.140625 -20.03125 C 26.109375 -18.039062 26.59375 -15.628906 26.59375 -12.796875 C 26.59375 -9.960938 26.109375 -7.550781 25.140625 -5.5625 C 24.171875 -3.570312 22.789062 -2.066406 21 -1.046875 C 19.21875 -0.0234375 17.117188 0.484375 14.703125 0.484375 Z M 14.703125 -2.90625 C 17.253906 -2.90625 19.207031 -3.707031 20.5625 -5.3125 C 21.914062 -6.925781 22.59375 -9.421875 22.59375 -12.796875 C 22.59375 -16.179688 21.914062 -18.679688 20.5625 -20.296875 C 19.207031 -21.910156 17.253906 -22.71875 14.703125 -22.71875 C 12.148438 -22.71875 10.191406 -21.90625 8.828125 -20.28125 C 7.460938 -18.664062 6.78125 -16.171875 6.78125 -12.796875 C 6.78125 -9.421875 7.460938 -6.925781 8.828125 -5.3125 C 10.191406 -3.707031 12.148438 -2.90625 14.703125 -2.90625 Z M 14.703125 -2.90625 "/></g></g></g><g fill="#0c1d36" fill-opacity="1"><g transform="translate(783.027263, 215.302071)"><g><path d="M 12.65625 0.484375 C 9.757812 0.484375 7.601562 -0.28125 6.1875 -1.8125 C 4.769531 -3.34375 4.0625 -5.585938 4.0625 -8.546875 L 4.0625 -25.609375 L 7.84375 -25.609375 L 7.84375 -8.640625 C 7.84375 -4.753906 9.671875 -2.8125 13.328125 -2.8125 C 15.648438 -2.8125 17.484375 -3.566406 18.828125 -5.078125 C 20.179688 -6.597656 20.859375 -9.0625 20.859375 -12.46875 L 20.859375 -25.609375 L 24.640625 -25.609375 L 24.640625 0 L 21.0625 0 L 21.0625 -4.015625 L 20.578125 -4.140625 C 19.691406 -2.566406 18.632812 -1.398438 17.40625 -0.640625 C 16.175781 0.109375 14.59375 0.484375 12.65625 0.484375 Z M 12.65625 0.484375 "/></g></g></g><g fill="#0c1d36" fill-opacity="1"><g transform="translate(812.127497, 215.302071)"><g><path d="M 4.453125 0 L 4.453125 -25.609375 L 8.0625 -25.609375 L 8.0625 -21.59375 L 8.546875 -21.484375 C 9.734375 -24.390625 11.976562 -25.84375 15.28125 -25.84375 C 17.03125 -25.84375 18.335938 -25.523438 19.203125 -24.890625 L 18.234375 -21.6875 L 17.765625 -21.59375 C 16.804688 -22.070312 15.753906 -22.3125 14.609375 -22.3125 C 12.566406 -22.3125 10.992188 -21.546875 9.890625 -20.015625 C 8.796875 -18.484375 8.25 -16 8.25 -12.5625 L 8.25 0 Z M 4.453125 0 "/></g></g></g><g fill="#0c1d36" fill-opacity="1"><g transform="translate(831.914715, 215.302071)"><g/></g></g><g fill="#0c1d36" fill-opacity="1"><g transform="translate(843.573382, 215.302071)"><g><path d="M 9.125 -16 L 9.125 -3.296875 L 26.421875 -3.296875 L 26.421875 0 L 5.125 0 L 5.125 -33.953125 L 26.0625 -33.953125 L 26.0625 -30.65625 L 9.125 -30.65625 L 9.125 -19.296875 L 24.0625 -19.296875 L 24.0625 -16 Z M 9.125 -16 "/></g></g></g><g fill="#0c1d36" fill-opacity="1"><g transform="translate(872.255576, 215.302071)"><g><path d="M 5.34375 0 L 1.15625 0 L 9.078125 -13.28125 L 1.5625 -25.609375 L 5.828125 -25.609375 L 11.75 -15.765625 L 12.28125 -15.765625 L 18.234375 -25.609375 L 22.3125 -25.609375 L 14.984375 -13.28125 L 22.71875 0 L 18.4375 0 L 12.125 -10.828125 L 11.59375 -10.828125 Z M 5.34375 0 "/></g></g></g><g fill="#0c1d36" fill-opacity="1"><g transform="translate(896.130295, 215.302071)"><g><path d="M 4.453125 10.375 L 4.453125 -25.609375 L 8.25 -25.609375 L 8.25 -21.78125 L 8.734375 -21.6875 C 10.640625 -24.632812 13.429688 -26.109375 17.109375 -26.109375 C 19.253906 -26.109375 21.125 -25.617188 22.71875 -24.640625 C 24.3125 -23.660156 25.546875 -22.175781 26.421875 -20.1875 C 27.304688 -18.195312 27.75 -15.734375 27.75 -12.796875 C 27.75 -9.867188 27.285156 -7.414062 26.359375 -5.4375 C 25.429688 -3.457031 24.144531 -1.972656 22.5 -0.984375 C 20.863281 -0.00390625 18.976562 0.484375 16.84375 0.484375 C 15.101562 0.484375 13.554688 0.179688 12.203125 -0.421875 C 10.859375 -1.023438 9.703125 -2.015625 8.734375 -3.390625 L 8.25 -3.296875 L 8.25 10.375 Z M 16 -2.90625 C 21.1875 -2.90625 23.78125 -6.203125 23.78125 -12.796875 C 23.78125 -19.410156 21.1875 -22.71875 16 -22.71875 C 14.476562 -22.71875 13.132812 -22.367188 11.96875 -21.671875 C 10.8125 -20.972656 9.898438 -19.882812 9.234375 -18.40625 C 8.578125 -16.925781 8.25 -15.054688 8.25 -12.796875 C 8.25 -10.546875 8.578125 -8.679688 9.234375 -7.203125 C 9.898438 -5.734375 10.8125 -4.648438 11.96875 -3.953125 C 13.132812 -3.253906 14.476562 -2.90625 16 -2.90625 Z M 16 -2.90625 "/></g></g></g><g fill="#0c1d36" fill-opacity="1"><g transform="translate(926.693651, 215.302071)"><g><path d="M 24.40625 -11.9375 L 6.796875 -11.9375 C 6.910156 -8.820312 7.660156 -6.535156 9.046875 -5.078125 C 10.429688 -3.628906 12.332031 -2.90625 14.75 -2.90625 C 16.570312 -2.90625 18.039062 -3.226562 19.15625 -3.875 C 20.269531 -4.53125 21.144531 -5.550781 21.78125 -6.9375 L 22.265625 -6.9375 L 24.734375 -5.484375 C 23.992188 -3.617188 22.804688 -2.15625 21.171875 -1.09375 C 19.535156 -0.0390625 17.394531 0.484375 14.75 0.484375 C 12.269531 0.484375 10.140625 0 8.359375 -0.96875 C 6.578125 -1.945312 5.207031 -3.425781 4.25 -5.40625 C 3.289062 -7.394531 2.8125 -9.859375 2.8125 -12.796875 C 2.8125 -15.703125 3.316406 -18.15625 4.328125 -20.15625 C 5.347656 -22.15625 6.734375 -23.644531 8.484375 -24.625 C 10.242188 -25.613281 12.253906 -26.109375 14.515625 -26.109375 C 17.796875 -26.109375 20.359375 -25.179688 22.203125 -23.328125 C 24.046875 -21.472656 24.972656 -18.726562 24.984375 -15.09375 C 24.984375 -13.664062 24.953125 -12.707031 24.890625 -12.21875 Z M 21.25 -15.09375 C 21.1875 -17.820312 20.582031 -19.804688 19.4375 -21.046875 C 18.289062 -22.285156 16.648438 -22.90625 14.515625 -22.90625 C 12.265625 -22.90625 10.5 -22.28125 9.21875 -21.03125 C 7.945312 -19.78125 7.171875 -17.800781 6.890625 -15.09375 Z M 21.25 -15.09375 "/></g></g></g><g fill="#0c1d36" fill-opacity="1"><g transform="translate(954.005586, 215.302071)"><g><path d="M 14.703125 0.484375 C 12.441406 0.484375 10.410156 -0.0234375 8.609375 -1.046875 C 6.816406 -2.078125 5.398438 -3.59375 4.359375 -5.59375 C 3.328125 -7.601562 2.8125 -10.003906 2.8125 -12.796875 C 2.8125 -15.597656 3.328125 -18 4.359375 -20 C 5.398438 -22.007812 6.816406 -23.53125 8.609375 -24.5625 C 10.410156 -25.59375 12.441406 -26.109375 14.703125 -26.109375 C 17.410156 -26.109375 19.566406 -25.59375 21.171875 -24.5625 C 22.773438 -23.539062 23.929688 -22.179688 24.640625 -20.484375 L 22.0625 -18.625 L 21.59375 -18.625 C 20.894531 -20.03125 20 -21.0625 18.90625 -21.71875 C 17.820312 -22.382812 16.421875 -22.71875 14.703125 -22.71875 C 13.117188 -22.71875 11.726562 -22.34375 10.53125 -21.59375 C 9.34375 -20.851562 8.421875 -19.738281 7.765625 -18.25 C 7.109375 -16.769531 6.78125 -14.953125 6.78125 -12.796875 C 6.78125 -10.660156 7.113281 -8.851562 7.78125 -7.375 C 8.445312 -5.894531 9.367188 -4.78125 10.546875 -4.03125 C 11.734375 -3.28125 13.117188 -2.90625 14.703125 -2.90625 C 16.484375 -2.90625 17.957031 -3.304688 19.125 -4.109375 C 20.289062 -4.910156 21.207031 -6.179688 21.875 -7.921875 L 22.359375 -7.921875 L 24.84375 -6.453125 C 24.175781 -4.304688 22.988281 -2.613281 21.28125 -1.375 C 19.570312 -0.132812 17.378906 0.484375 14.703125 0.484375 Z M 14.703125 0.484375 "/></g></g></g><g fill="#0c1d36" fill-opacity="1"><g transform="translate(980.411786, 215.302071)"><g><path d="M 17.328125 -4.0625 L 18.53125 -1.34375 C 17.925781 -0.738281 17.128906 -0.285156 16.140625 0.015625 C 15.160156 0.328125 14.097656 0.484375 12.953125 0.484375 C 8.066406 0.484375 5.625 -1.988281 5.625 -6.9375 L 5.625 -22.53125 L 1.15625 -22.53125 L 1.15625 -25.640625 L 5.625 -25.640625 L 5.625 -31.046875 L 9.40625 -31.671875 L 9.40625 -25.640625 L 17.65625 -25.640625 L 17.65625 -22.53125 L 9.40625 -22.53125 L 9.40625 -7.3125 C 9.40625 -4.375 10.679688 -2.90625 13.234375 -2.90625 C 14.628906 -2.90625 15.832031 -3.289062 16.84375 -4.0625 Z M 17.328125 -4.0625 "/></g></g></g><g fill="#0c1d36" fill-opacity="1"><g transform="translate(999.920311, 215.302071)"><g><path d="M 10.5625 0.484375 C 8.039062 0.484375 6.070312 -0.171875 4.65625 -1.484375 C 3.238281 -2.796875 2.53125 -4.675781 2.53125 -7.125 C 2.53125 -8.644531 2.84375 -9.925781 3.46875 -10.96875 C 4.09375 -12.019531 5.0625 -12.875 6.375 -13.53125 C 7.695312 -14.1875 9.421875 -14.691406 11.546875 -15.046875 C 13.398438 -15.359375 14.8125 -15.707031 15.78125 -16.09375 C 16.75 -16.476562 17.398438 -16.910156 17.734375 -17.390625 C 18.066406 -17.867188 18.234375 -18.472656 18.234375 -19.203125 C 18.234375 -20.367188 17.832031 -21.257812 17.03125 -21.875 C 16.238281 -22.5 14.957031 -22.8125 13.1875 -22.8125 C 11.53125 -22.8125 10.109375 -22.488281 8.921875 -21.84375 C 7.742188 -21.195312 6.660156 -20.238281 5.671875 -18.96875 L 5.203125 -18.96875 L 3.34375 -21.59375 C 4.425781 -22.976562 5.800781 -24.078125 7.46875 -24.890625 C 9.144531 -25.703125 11.050781 -26.109375 13.1875 -26.109375 C 16.207031 -26.109375 18.429688 -25.441406 19.859375 -24.109375 C 21.296875 -22.785156 22.015625 -20.957031 22.015625 -18.625 L 22.015625 -5.046875 C 22.015625 -3.617188 22.617188 -2.90625 23.828125 -2.90625 C 24.234375 -2.90625 24.617188 -2.972656 24.984375 -3.109375 L 25.3125 -3.015625 L 25.75 -0.390625 C 25.476562 -0.203125 25.113281 -0.0625 24.65625 0.03125 C 24.195312 0.132812 23.726562 0.1875 23.25 0.1875 C 21.84375 0.1875 20.773438 -0.117188 20.046875 -0.734375 C 19.328125 -1.359375 18.867188 -2.273438 18.671875 -3.484375 L 18.1875 -3.53125 C 17.457031 -2.1875 16.472656 -1.179688 15.234375 -0.515625 C 13.992188 0.148438 12.4375 0.484375 10.5625 0.484375 Z M 11.40625 -2.53125 C 12.832031 -2.53125 14.066406 -2.859375 15.109375 -3.515625 C 16.148438 -4.171875 16.945312 -5.09375 17.5 -6.28125 C 18.0625 -7.476562 18.34375 -8.859375 18.34375 -10.421875 L 18.34375 -13.671875 L 17.90625 -13.765625 C 17.332031 -13.367188 16.632812 -13.035156 15.8125 -12.765625 C 14.988281 -12.492188 13.84375 -12.25 12.375 -12.03125 C 10.894531 -11.832031 9.71875 -11.519531 8.84375 -11.09375 C 7.96875 -10.675781 7.34375 -10.144531 6.96875 -9.5 C 6.59375 -8.863281 6.40625 -8.070312 6.40625 -7.125 C 6.40625 -5.625 6.847656 -4.484375 7.734375 -3.703125 C 8.617188 -2.921875 9.84375 -2.53125 11.40625 -2.53125 Z M 11.40625 -2.53125 "/></g></g></g><g fill="#0c1d36" fill-opacity="1"><g transform="translate(1026.419408, 215.302071)"><g><path d="M 17.328125 -4.0625 L 18.53125 -1.34375 C 17.925781 -0.738281 17.128906 -0.285156 16.140625 0.015625 C 15.160156 0.328125 14.097656 0.484375 12.953125 0.484375 C 8.066406 0.484375 5.625 -1.988281 5.625 -6.9375 L 5.625 -22.53125 L 1.15625 -22.53125 L 1.15625 -25.640625 L 5.625 -25.640625 L 5.625 -31.046875 L 9.40625 -31.671875 L 9.40625 -25.640625 L 17.65625 -25.640625 L 17.65625 -22.53125 L 9.40625 -22.53125 L 9.40625 -7.3125 C 9.40625 -4.375 10.679688 -2.90625 13.234375 -2.90625 C 14.628906 -2.90625 15.832031 -3.289062 16.84375 -4.0625 Z M 17.328125 -4.0625 "/></g></g></g><g fill="#0c1d36" fill-opacity="1"><g transform="translate(1045.927934, 215.302071)"><g><path d="M 6.359375 -30.5625 C 5.554688 -30.5625 4.898438 -30.8125 4.390625 -31.3125 C 3.890625 -31.820312 3.640625 -32.460938 3.640625 -33.234375 C 3.640625 -34.003906 3.890625 -34.640625 4.390625 -35.140625 C 4.898438 -35.648438 5.554688 -35.90625 6.359375 -35.90625 C 7.171875 -35.90625 7.828125 -35.648438 8.328125 -35.140625 C 8.828125 -34.640625 9.078125 -34.003906 9.078125 -33.234375 C 9.078125 -32.460938 8.828125 -31.820312 8.328125 -31.3125 C 7.828125 -30.8125 7.171875 -30.5625 6.359375 -30.5625 Z M 4.453125 0 L 4.453125 -25.609375 L 8.25 -25.609375 L 8.25 0 Z M 4.453125 0 "/></g></g></g><g fill="#0c1d36" fill-opacity="1"><g transform="translate(1058.631716, 215.302071)"><g><path d="M 14.703125 0.484375 C 12.285156 0.484375 10.179688 -0.0234375 8.390625 -1.046875 C 6.609375 -2.066406 5.234375 -3.570312 4.265625 -5.5625 C 3.296875 -7.550781 2.8125 -9.960938 2.8125 -12.796875 C 2.8125 -15.628906 3.296875 -18.039062 4.265625 -20.03125 C 5.234375 -22.03125 6.609375 -23.539062 8.390625 -24.5625 C 10.179688 -25.59375 12.285156 -26.109375 14.703125 -26.109375 C 17.117188 -26.109375 19.21875 -25.59375 21 -24.5625 C 22.789062 -23.539062 24.171875 -22.03125 25.140625 -20.03125 C 26.109375 -18.039062 26.59375 -15.628906 26.59375 -12.796875 C 26.59375 -9.960938 26.109375 -7.550781 25.140625 -5.5625 C 24.171875 -3.570312 22.789062 -2.066406 21 -1.046875 C 19.21875 -0.0234375 17.117188 0.484375 14.703125 0.484375 Z M 14.703125 -2.90625 C 17.253906 -2.90625 19.207031 -3.707031 20.5625 -5.3125 C 21.914062 -6.925781 22.59375 -9.421875 22.59375 -12.796875 C 22.59375 -16.179688 21.914062 -18.679688 20.5625 -20.296875 C 19.207031 -21.910156 17.253906 -22.71875 14.703125 -22.71875 C 12.148438 -22.71875 10.191406 -21.90625 8.828125 -20.28125 C 7.460938 -18.664062 6.78125 -16.171875 6.78125 -12.796875 C 6.78125 -9.421875 7.460938 -6.925781 8.828125 -5.3125 C 10.191406 -3.707031 12.148438 -2.90625 14.703125 -2.90625 Z M 14.703125 -2.90625 "/></g></g></g><g fill="#0c1d36" fill-opacity="1"><g transform="translate(1088.033817, 215.302071)"><g><path d="M 4.453125 0 L 4.453125 -25.609375 L 8.0625 -25.609375 L 8.0625 -21.59375 L 8.546875 -21.484375 C 9.398438 -22.984375 10.488281 -24.128906 11.8125 -24.921875 C 13.132812 -25.710938 14.75 -26.109375 16.65625 -26.109375 C 19.726562 -26.109375 21.957031 -25.320312 23.34375 -23.75 C 24.738281 -22.175781 25.4375 -19.753906 25.4375 -16.484375 L 25.4375 0 L 21.640625 0 L 21.640625 -16.390625 C 21.640625 -17.941406 21.441406 -19.1875 21.046875 -20.125 C 20.648438 -21.0625 20.035156 -21.742188 19.203125 -22.171875 C 18.378906 -22.597656 17.296875 -22.8125 15.953125 -22.8125 C 13.648438 -22.8125 11.789062 -22.046875 10.375 -20.515625 C 8.957031 -18.992188 8.25 -16.535156 8.25 -13.140625 L 8.25 0 Z M 4.453125 0 "/></g></g></g><g fill="#0c1d36" fill-opacity="1"><g transform="translate(1117.528883, 215.302071)"><g><path d="M 11.6875 0.484375 C 10.070312 0.484375 8.578125 0.269531 7.203125 -0.15625 C 5.835938 -0.582031 4.679688 -1.164062 3.734375 -1.90625 C 2.796875 -2.644531 2.128906 -3.476562 1.734375 -4.40625 L 3.96875 -6.734375 L 4.453125 -6.734375 C 5.296875 -5.460938 6.304688 -4.503906 7.484375 -3.859375 C 8.660156 -3.222656 10.0625 -2.90625 11.6875 -2.90625 C 13.570312 -2.90625 15.003906 -3.269531 15.984375 -4 C 16.972656 -4.738281 17.46875 -5.765625 17.46875 -7.078125 C 17.46875 -8.085938 17.164062 -8.921875 16.5625 -9.578125 C 15.96875 -10.234375 15.003906 -10.722656 13.671875 -11.046875 L 9.359375 -12.125 C 7.054688 -12.675781 5.375 -13.554688 4.3125 -14.765625 C 3.25 -15.972656 2.71875 -17.46875 2.71875 -19.25 C 2.71875 -20.644531 3.070312 -21.859375 3.78125 -22.890625 C 4.5 -23.921875 5.523438 -24.710938 6.859375 -25.265625 C 8.203125 -25.828125 9.796875 -26.109375 11.640625 -26.109375 C 13.992188 -26.109375 15.847656 -25.773438 17.203125 -25.109375 C 18.554688 -24.453125 19.613281 -23.535156 20.375 -22.359375 L 18.234375 -20.28125 L 17.765625 -20.28125 C 16.941406 -21.21875 16.046875 -21.894531 15.078125 -22.3125 C 14.109375 -22.726562 12.960938 -22.9375 11.640625 -22.9375 C 9.953125 -22.9375 8.65625 -22.632812 7.75 -22.03125 C 6.851562 -21.4375 6.40625 -20.566406 6.40625 -19.421875 C 6.40625 -18.378906 6.722656 -17.539062 7.359375 -16.90625 C 7.992188 -16.269531 9.101562 -15.757812 10.6875 -15.375 L 14.9375 -14.359375 C 17.164062 -13.828125 18.773438 -12.945312 19.765625 -11.71875 C 20.753906 -10.5 21.25 -8.96875 21.25 -7.125 C 21.25 -5.625 20.890625 -4.300781 20.171875 -3.15625 C 19.460938 -2.007812 18.390625 -1.113281 16.953125 -0.46875 C 15.515625 0.164062 13.757812 0.484375 11.6875 0.484375 Z M 11.6875 0.484375 "/></g></g></g><g fill="#0c1d36" fill-opacity="1"><g transform="translate(1141.217806, 215.302071)"><g><path d="M 1.46875 7.078125 C 2.8125 6.203125 3.945312 5.179688 4.875 4.015625 C 5.800781 2.859375 6.28125 1.582031 6.3125 0.1875 C 5.40625 0.1875 4.691406 -0.0546875 4.171875 -0.546875 C 3.648438 -1.046875 3.390625 -1.707031 3.390625 -2.53125 C 3.390625 -3.332031 3.640625 -3.992188 4.140625 -4.515625 C 4.648438 -5.035156 5.320312 -5.296875 6.15625 -5.296875 C 7.070312 -5.296875 7.8125 -4.976562 8.375 -4.34375 C 8.9375 -3.707031 9.21875 -2.707031 9.21875 -1.34375 C 9.21875 1.070312 8.695312 3.101562 7.65625 4.75 C 6.625 6.394531 5.09375 7.898438 3.0625 9.265625 Z M 1.46875 7.078125 "/></g></g></g><g fill="#0c1d36" fill-opacity="1"><g transform="translate(1153.828691, 215.302071)"><g/></g></g><g fill="#0c1d36" fill-opacity="1"><g transform="translate(1165.487392, 215.302071)"><g><path d="M 9.125 -16 L 9.125 -3.296875 L 26.421875 -3.296875 L 26.421875 0 L 5.125 0 L 5.125 -33.953125 L 26.0625 -33.953125 L 26.0625 -30.65625 L 9.125 -30.65625 L 9.125 -19.296875 L 24.0625 -19.296875 L 24.0625 -16 Z M 9.125 -16 "/></g></g></g><g fill="#0c1d36" fill-opacity="1"><g transform="translate(1194.169586, 215.302071)"><g><path d="M 16.203125 0 L 11.015625 0 L 1.25 -25.609375 L 5.34375 -25.609375 L 13.40625 -4.3125 L 13.9375 -4.3125 L 21.921875 -25.609375 L 25.921875 -25.609375 Z M 16.203125 0 "/></g></g></g><g fill="#0c1d36" fill-opacity="1"><g transform="translate(1221.319001, 215.302071)"><g><path d="M 24.40625 -11.9375 L 6.796875 -11.9375 C 6.910156 -8.820312 7.660156 -6.535156 9.046875 -5.078125 C 10.429688 -3.628906 12.332031 -2.90625 14.75 -2.90625 C 16.570312 -2.90625 18.039062 -3.226562 19.15625 -3.875 C 20.269531 -4.53125 21.144531 -5.550781 21.78125 -6.9375 L 22.265625 -6.9375 L 24.734375 -5.484375 C 23.992188 -3.617188 22.804688 -2.15625 21.171875 -1.09375 C 19.535156 -0.0390625 17.394531 0.484375 14.75 0.484375 C 12.269531 0.484375 10.140625 0 8.359375 -0.96875 C 6.578125 -1.945312 5.207031 -3.425781 4.25 -5.40625 C 3.289062 -7.394531 2.8125 -9.859375 2.8125 -12.796875 C 2.8125 -15.703125 3.316406 -18.15625 4.328125 -20.15625 C 5.347656 -22.15625 6.734375 -23.644531 8.484375 -24.625 C 10.242188 -25.613281 12.253906 -26.109375 14.515625 -26.109375 C 17.796875 -26.109375 20.359375 -25.179688 22.203125 -23.328125 C 24.046875 -21.472656 24.972656 -18.726562 24.984375 -15.09375 C 24.984375 -13.664062 24.953125 -12.707031 24.890625 -12.21875 Z M 21.25 -15.09375 C 21.1875 -17.820312 20.582031 -19.804688 19.4375 -21.046875 C 18.289062 -22.285156 16.648438 -22.90625 14.515625 -22.90625 C 12.265625 -22.90625 10.5 -22.28125 9.21875 -21.03125 C 7.945312 -19.78125 7.171875 -17.800781 6.890625 -15.09375 Z M 21.25 -15.09375 "/></g></g></g><g fill="#0c1d36" fill-opacity="1"><g transform="translate(1248.630936, 215.302071)"><g><path d="M 4.453125 0 L 4.453125 -25.609375 L 8.0625 -25.609375 L 8.0625 -21.59375 L 8.546875 -21.484375 C 9.734375 -24.390625 11.976562 -25.84375 15.28125 -25.84375 C 17.03125 -25.84375 18.335938 -25.523438 19.203125 -24.890625 L 18.234375 -21.6875 L 17.765625 -21.59375 C 16.804688 -22.070312 15.753906 -22.3125 14.609375 -22.3125 C 12.566406 -22.3125 10.992188 -21.546875 9.890625 -20.015625 C 8.796875 -18.484375 8.25 -16 8.25 -12.5625 L 8.25 0 Z M 4.453125 0 "/></g></g></g><g fill="#0c1d36" fill-opacity="1"><g transform="translate(1268.418155, 215.302071)"><g><path d="M 5.125 10.875 C 4.257812 10.875 3.453125 10.796875 2.703125 10.640625 C 1.953125 10.492188 1.304688 10.289062 0.765625 10.03125 L 1.46875 7.03125 L 1.875 6.890625 C 2.25 7.078125 2.710938 7.238281 3.265625 7.375 C 3.828125 7.507812 4.40625 7.578125 5 7.578125 C 6.03125 7.578125 6.882812 7.4375 7.5625 7.15625 C 8.25 6.875 8.835938 6.410156 9.328125 5.765625 C 9.816406 5.128906 10.269531 4.242188 10.6875 3.109375 L 11.59375 0.609375 L 1.296875 -25.609375 L 5.390625 -25.609375 L 13.453125 -4.71875 L 13.890625 -4.71875 L 21.6875 -25.609375 L 25.5625 -25.609375 L 14.125 4.015625 C 13.46875 5.660156 12.738281 6.976562 11.9375 7.96875 C 11.132812 8.96875 10.179688 9.703125 9.078125 10.171875 C 7.984375 10.640625 6.664062 10.875 5.125 10.875 Z M 5.125 10.875 "/></g></g></g><g fill="#0c1d36" fill-opacity="1"><g transform="translate(1295.42819, 215.302071)"><g/></g></g><g fill="#0c1d36" fill-opacity="1"><g transform="translate(1307.086822, 215.302071)"><g><path d="M 26.5 -33.953125 L 26.5 -30.5625 L 15.859375 -30.5625 L 15.859375 0 L 11.890625 0 L 11.890625 -30.5625 L 1.25 -30.5625 L 1.25 -33.953125 Z M 26.5 -33.953125 "/></g></g></g><g fill="#0c1d36" fill-opacity="1"><g transform="translate(1334.816763, 215.302071)"><g><path d="M 6.359375 -30.5625 C 5.554688 -30.5625 4.898438 -30.8125 4.390625 -31.3125 C 3.890625 -31.820312 3.640625 -32.460938 3.640625 -33.234375 C 3.640625 -34.003906 3.890625 -34.640625 4.390625 -35.140625 C 4.898438 -35.648438 5.554688 -35.90625 6.359375 -35.90625 C 7.171875 -35.90625 7.828125 -35.648438 8.328125 -35.140625 C 8.828125 -34.640625 9.078125 -34.003906 9.078125 -33.234375 C 9.078125 -32.460938 8.828125 -31.820312 8.328125 -31.3125 C 7.828125 -30.8125 7.171875 -30.5625 6.359375 -30.5625 Z M 4.453125 0 L 4.453125 -25.609375 L 8.25 -25.609375 L 8.25 0 Z M 4.453125 0 "/></g></g></g><g fill="#0c1d36" fill-opacity="1"><g transform="translate(1347.520546, 215.302071)"><g><path d="M 4.453125 0 L 4.453125 -25.609375 L 8.0625 -25.609375 L 8.0625 -21.828125 L 8.546875 -21.734375 C 9.410156 -23.171875 10.457031 -24.257812 11.6875 -25 C 12.925781 -25.738281 14.40625 -26.109375 16.125 -26.109375 C 18.101562 -26.109375 19.632812 -25.726562 20.71875 -24.96875 C 21.800781 -24.21875 22.644531 -23.007812 23.25 -21.34375 L 23.734375 -21.34375 C 24.617188 -22.90625 25.707031 -24.085938 27 -24.890625 C 28.289062 -25.703125 29.878906 -26.109375 31.765625 -26.109375 C 34.398438 -26.109375 36.363281 -25.394531 37.65625 -23.96875 C 38.945312 -22.539062 39.59375 -20.375 39.59375 -17.46875 L 39.59375 0 L 35.8125 0 L 35.8125 -17.375 C 35.8125 -19.226562 35.421875 -20.597656 34.640625 -21.484375 C 33.859375 -22.367188 32.597656 -22.8125 30.859375 -22.8125 C 28.816406 -22.8125 27.148438 -22.066406 25.859375 -20.578125 C 24.566406 -19.085938 23.921875 -16.640625 23.921875 -13.234375 L 23.921875 0 L 20.140625 0 L 20.140625 -17.375 C 20.140625 -19.226562 19.75 -20.597656 18.96875 -21.484375 C 18.1875 -22.367188 16.925781 -22.8125 15.1875 -22.8125 C 13.144531 -22.8125 11.476562 -22.085938 10.1875 -20.640625 C 8.894531 -19.203125 8.25 -16.863281 8.25 -13.625 L 8.25 0 Z M 4.453125 0 "/></g></g></g><g fill="#0c1d36" fill-opacity="1"><g transform="translate(1391.182483, 215.302071)"><g><path d="M 24.40625 -11.9375 L 6.796875 -11.9375 C 6.910156 -8.820312 7.660156 -6.535156 9.046875 -5.078125 C 10.429688 -3.628906 12.332031 -2.90625 14.75 -2.90625 C 16.570312 -2.90625 18.039062 -3.226562 19.15625 -3.875 C 20.269531 -4.53125 21.144531 -5.550781 21.78125 -6.9375 L 22.265625 -6.9375 L 24.734375 -5.484375 C 23.992188 -3.617188 22.804688 -2.15625 21.171875 -1.09375 C 19.535156 -0.0390625 17.394531 0.484375 14.75 0.484375 C 12.269531 0.484375 10.140625 0 8.359375 -0.96875 C 6.578125 -1.945312 5.207031 -3.425781 4.25 -5.40625 C 3.289062 -7.394531 2.8125 -9.859375 2.8125 -12.796875 C 2.8125 -15.703125 3.316406 -18.15625 4.328125 -20.15625 C 5.347656 -22.15625 6.734375 -23.644531 8.484375 -24.625 C 10.242188 -25.613281 12.253906 -26.109375 14.515625 -26.109375 C 17.796875 -26.109375 20.359375 -25.179688 22.203125 -23.328125 C 24.046875 -21.472656 24.972656 -18.726562 24.984375 -15.09375 C 24.984375 -13.664062 24.953125 -12.707031 24.890625 -12.21875 Z M 21.25 -15.09375 C 21.1875 -17.820312 20.582031 -19.804688 19.4375 -21.046875 C 18.289062 -22.285156 16.648438 -22.90625 14.515625 -22.90625 C 12.265625 -22.90625 10.5 -22.28125 9.21875 -21.03125 C 7.945312 -19.78125 7.171875 -17.800781 6.890625 -15.09375 Z M 21.25 -15.09375 "/></g></g></g></svg>