<svg xmlns="http://www.w3.org/2000/svg" xmlns:xlink="http://www.w3.org/1999/xlink" width="500" zoomAndPan="magnify" viewBox="0 0 375 374.999991" height="500" preserveAspectRatio="xMidYMid meet" version="1.0"><path fill="#0c1d36" d="M 5.558594 275.105469 C 8.191406 275.398438 108.230469 275.398438 139.527344 275.398438 C 136.019531 266.625 135.140625 258.433594 134.554688 254.339844 C 134.261719 252.582031 133.96875 250.828125 133.679688 249.367188 C 131.628906 236.496094 128.996094 219.53125 140.699219 204.320312 L 118.175781 196.128906 L 118.175781 187.355469 C 129.289062 176.238281 131.628906 159.859375 132.507812 153.128906 C 132.800781 151.375 133.09375 149.621094 133.386719 147.863281 C 135.140625 135.871094 137.480469 122.125 127.242188 110.421875 C 118.757812 100.769531 108.523438 95.210938 96.238281 94.042969 C 94.480469 94.042969 87.460938 94.042969 86 94.042969 C 73.714844 95.210938 63.183594 100.769531 54.699219 110.421875 C 44.460938 122.125 46.800781 135.871094 48.558594 147.863281 C 48.847656 149.621094 49.140625 151.375 49.433594 153.128906 C 50.898438 164.246094 54.113281 177.992188 63.765625 187.644531 L 63.765625 196.128906 L 27.789062 209 C 26.910156 209.292969 4.972656 216.605469 3.511719 234.15625 L 0.292969 268.671875 C 0 271.890625 2.339844 274.816406 5.558594 275.105469 Z M 90.972656 275.105469 C 87.753906 275.105469 85.121094 272.472656 85.121094 269.257812 C 85.121094 266.039062 87.753906 263.40625 90.972656 263.40625 C 94.1875 263.40625 96.820312 266.039062 96.820312 269.257812 C 96.820312 272.472656 94.1875 275.105469 90.972656 275.105469 Z M 90.972656 257.554688 C 87.753906 257.554688 85.121094 254.925781 85.121094 251.707031 C 85.121094 248.488281 87.753906 245.855469 90.972656 245.855469 C 94.1875 245.855469 96.820312 248.488281 96.820312 251.707031 C 96.820312 254.925781 94.1875 257.554688 90.972656 257.554688 Z M 106.472656 207.535156 L 90.972656 224.503906 L 75.46875 207.535156 L 75.46875 195.25 C 78.976562 196.714844 82.78125 197.882812 87.167969 198.46875 C 88.046875 198.46875 93.3125 198.761719 94.1875 198.46875 C 98.867188 197.882812 102.671875 196.714844 106.183594 195.25 L 106.183594 207.535156 Z M 61.136719 151.667969 C 60.84375 149.914062 59.671875 142.597656 59.378906 140.84375 C 69.03125 143.769531 76.636719 140.550781 81.902344 136.75 C 93.019531 147.28125 105.011719 149.914062 114.078125 149.914062 C 116.710938 149.914062 119.050781 149.621094 121.101562 149.328125 C 121.101562 150.203125 120.808594 151.082031 120.808594 151.667969 C 117.589844 174.191406 109.398438 185.011719 92.726562 187.0625 C 91.847656 187.0625 89.800781 187.0625 88.921875 187.0625 C 72.25 184.722656 64.351562 174.191406 61.136719 151.667969 Z M 61.136719 151.667969 " fill-opacity="1" fill-rule="nonzero"/><path fill="#0c1d36" d="M 124.609375 308.453125 C 123.734375 308.746094 101.5 316.058594 100.039062 333.316406 L 96.820312 368.125 C 96.527344 371.34375 98.867188 374.269531 102.085938 374.5625 C 105.304688 374.855469 269.695312 374.855469 272.914062 374.5625 C 276.132812 374.269531 278.472656 371.34375 278.179688 368.125 L 274.960938 333.316406 C 273.5 316.058594 251.558594 308.453125 250.683594 308.160156 L 214.703125 295.582031 L 214.703125 287.101562 C 224.355469 277.449219 227.574219 263.699219 229.035156 252.582031 C 229.328125 250.828125 229.621094 249.074219 229.914062 247.320312 C 231.960938 235.324219 234.007812 221.578125 223.769531 209.878906 C 215.289062 200.222656 204.757812 194.667969 192.472656 193.496094 C 191.011719 193.203125 183.988281 193.203125 182.234375 193.496094 C 169.949219 194.667969 159.710938 200.222656 151.230469 209.878906 C 140.992188 221.578125 143.332031 235.324219 145.085938 247.320312 C 145.378906 249.074219 145.671875 250.828125 145.964844 252.582031 C 146.839844 259.3125 149.179688 275.691406 160.296875 286.808594 L 160.296875 295.582031 Z M 187.5 374.5625 C 184.28125 374.5625 181.648438 371.929688 181.648438 368.710938 C 181.648438 365.492188 184.28125 362.859375 187.5 362.859375 C 190.71875 362.859375 193.351562 365.492188 193.351562 368.710938 C 193.351562 371.929688 190.71875 374.5625 187.5 374.5625 Z M 187.5 357.011719 C 184.28125 357.011719 181.648438 354.378906 181.648438 351.160156 C 181.648438 347.941406 184.28125 345.308594 187.5 345.308594 C 190.71875 345.308594 193.351562 347.941406 193.351562 351.160156 C 193.351562 354.378906 190.71875 357.011719 187.5 357.011719 Z M 203.003906 307.285156 L 187.5 324.25 L 172.289062 307.285156 L 172.289062 294.996094 C 175.800781 296.460938 179.894531 297.628906 184.28125 298.214844 C 185.160156 298.214844 190.132812 298.214844 191.300781 298.214844 C 195.691406 297.628906 199.492188 296.460938 203.003906 294.996094 Z M 157.664062 251.121094 C 157.664062 250.242188 157.371094 249.660156 157.371094 248.78125 C 159.417969 249.074219 161.757812 249.367188 164.390625 249.367188 C 173.460938 249.367188 185.453125 246.734375 196.566406 236.203125 C 201.539062 240.003906 209.4375 242.929688 219.089844 240.296875 C 218.796875 242.054688 217.628906 249.367188 217.335938 251.121094 C 214.117188 273.9375 206.222656 284.175781 189.546875 286.515625 C 188.671875 286.515625 186.621094 286.808594 185.746094 286.515625 C 169.070312 284.175781 160.589844 273.644531 157.664062 251.121094 Z M 157.664062 251.121094 " fill-opacity="1" fill-rule="nonzero"/><path fill="#0c1d36" d="M 325.566406 153.128906 C 325.859375 151.375 326.152344 149.621094 326.441406 147.863281 C 328.199219 135.871094 330.539062 122.125 320.300781 110.421875 C 311.816406 100.769531 301.285156 95.210938 289 94.042969 C 287.539062 94.042969 280.519531 94.042969 278.761719 94.042969 C 266.476562 95.210938 256.242188 100.769531 247.757812 110.421875 C 237.519531 122.125 239.859375 135.871094 241.613281 147.863281 C 241.90625 149.621094 242.199219 151.375 242.492188 153.128906 C 243.371094 159.859375 245.710938 176.238281 256.824219 187.355469 L 256.824219 196.128906 L 234.300781 204.320312 C 246.003906 219.824219 243.371094 236.496094 241.320312 249.074219 C 241.03125 250.828125 240.738281 252.582031 240.445312 254.339844 C 239.566406 260.480469 238.105469 267.792969 235.472656 275.398438 C 275.253906 275.398438 366.226562 275.691406 369.441406 275.398438 C 372.660156 275.105469 375 272.183594 374.707031 268.964844 L 371.488281 234.15625 C 370.027344 216.898438 348.089844 209.292969 347.210938 209 L 311.234375 196.128906 L 311.234375 187.644531 C 320.59375 177.992188 324.101562 164.246094 325.566406 153.128906 Z M 284.027344 275.105469 C 280.8125 275.105469 278.179688 272.472656 278.179688 269.257812 C 278.179688 266.039062 280.8125 263.40625 284.027344 263.40625 C 287.246094 263.40625 289.878906 266.039062 289.878906 269.257812 C 289.878906 272.472656 287.246094 275.105469 284.027344 275.105469 Z M 284.027344 257.554688 C 280.8125 257.554688 278.179688 254.925781 278.179688 251.707031 C 278.179688 248.488281 280.8125 245.855469 284.027344 245.855469 C 287.246094 245.855469 289.878906 248.488281 289.878906 251.707031 C 289.878906 254.925781 287.246094 257.554688 284.027344 257.554688 Z M 299.53125 207.535156 L 284.027344 224.503906 L 268.816406 207.535156 L 268.816406 195.25 C 272.328125 196.714844 276.421875 197.882812 280.8125 198.46875 C 281.6875 198.46875 286.660156 198.46875 287.832031 198.46875 C 292.21875 197.882812 296.023438 196.714844 299.53125 195.25 Z M 286.078125 187.0625 C 285.199219 187.0625 283.152344 187.355469 282.273438 187.0625 C 265.601562 184.722656 257.117188 174.191406 254.191406 151.667969 C 254.191406 150.789062 253.898438 150.203125 253.898438 149.328125 C 255.949219 149.621094 258.289062 149.914062 260.921875 149.914062 C 269.988281 149.914062 281.980469 147.28125 293.097656 136.75 C 298.070312 140.550781 305.96875 143.476562 315.621094 140.84375 C 315.328125 142.597656 314.15625 149.914062 313.863281 151.667969 C 310.648438 174.191406 302.75 184.722656 286.078125 187.0625 Z M 286.078125 187.0625 " fill-opacity="1" fill-rule="nonzero"/><path fill="#0c1d36" d="M 143.914062 154.59375 C 143.039062 160.734375 140.992188 175.652344 131.921875 188.523438 L 149.472656 194.667969 C 158.542969 187.0625 169.070312 182.671875 181.066406 181.503906 C 182.527344 181.503906 185.453125 181.210938 187.5 181.210938 C 190.425781 181.210938 192.472656 181.210938 193.644531 181.503906 C 205.34375 182.671875 216.167969 187.0625 225.234375 194.667969 L 242.785156 188.523438 C 233.71875 175.652344 231.667969 160.734375 230.792969 154.59375 C 230.5 152.835938 230.207031 151.082031 229.914062 149.621094 C 228.160156 138.210938 225.820312 123.585938 234.007812 109.546875 L 214.703125 102.523438 L 214.703125 94.042969 C 224.355469 84.390625 227.574219 70.640625 229.035156 59.527344 C 229.328125 57.769531 229.621094 56.015625 229.914062 54.261719 C 231.667969 42.269531 234.007812 28.519531 223.769531 16.820312 C 215.289062 6.875 204.757812 1.316406 192.472656 0.144531 C 191.011719 0.144531 183.988281 0.144531 182.234375 0.144531 C 169.949219 1.316406 159.710938 6.875 151.230469 16.527344 C 140.992188 28.226562 143.332031 41.976562 145.085938 53.96875 C 145.378906 55.722656 145.671875 57.480469 145.964844 59.234375 C 146.839844 65.960938 149.179688 82.34375 160.296875 93.457031 L 160.296875 102.234375 L 140.699219 109.546875 C 148.886719 123.585938 146.546875 138.210938 144.792969 149.621094 C 144.5 151.375 144.207031 152.835938 143.914062 154.59375 Z M 187.5 181.503906 C 184.28125 181.503906 181.648438 178.871094 181.648438 175.652344 C 181.648438 172.4375 184.28125 169.804688 187.5 169.804688 C 190.71875 169.804688 193.351562 172.4375 193.351562 175.652344 C 193.351562 178.871094 190.71875 181.503906 187.5 181.503906 Z M 187.5 163.953125 C 184.28125 163.953125 181.648438 161.320312 181.648438 158.101562 C 181.648438 154.886719 184.28125 152.253906 187.5 152.253906 C 190.71875 152.253906 193.351562 154.886719 193.351562 158.101562 C 193.351562 161.320312 190.71875 163.953125 187.5 163.953125 Z M 203.003906 113.933594 L 187.5 130.898438 L 172.289062 113.933594 L 172.289062 101.648438 C 175.800781 103.109375 179.894531 104.28125 184.28125 104.867188 C 185.160156 104.867188 190.132812 104.867188 191.300781 104.867188 C 195.691406 104.28125 199.492188 103.109375 203.003906 101.648438 Z M 157.664062 57.769531 C 157.664062 56.894531 157.371094 56.308594 157.371094 55.429688 C 159.417969 55.722656 161.757812 56.015625 164.390625 56.015625 C 173.460938 56.015625 185.453125 53.382812 196.566406 42.851562 C 201.539062 46.65625 209.4375 49.582031 219.089844 46.949219 C 218.796875 48.703125 217.628906 56.015625 217.335938 57.769531 C 214.117188 80.585938 206.222656 90.824219 189.546875 93.164062 C 188.671875 93.164062 186.621094 93.457031 185.746094 93.164062 C 169.070312 91.117188 160.589844 80.585938 157.664062 57.769531 Z M 157.664062 57.769531 " fill-opacity="1" fill-rule="nonzero"/></svg>